M48
; DRILL file {KiCad 7.0.1} date Sat May 13 17:15:20 2023
; FORMAT={-:-/ absolute / inch / decimal}
; #@! TF.CreationDate,2023-05-13T17:15:20-04:00
; #@! TF.GenerationSoftware,Kicad,Pcbnew,7.0.1
; #@! TF.FileFunction,Plated,1,4,PTH
FMAT,2
INCH
; #@! TA.AperFunction,Plated,PTH,ViaDrill
T1C0.0079
; #@! TA.AperFunction,Plated,PTH,ComponentDrill
T2C0.0079
; #@! TA.AperFunction,Plated,PTH,ComponentDrill
T3C0.0157
; #@! TA.AperFunction,Plated,PTH,ComponentDrill
T4C0.0236
; #@! TA.AperFunction,Plated,PTH,ComponentDrill
T5C0.1181
; #@! TA.AperFunction,Plated,PTH,ComponentDrill
T6C0.1200
%
G90
G05
T1
X0.1606Y-0.459
X0.2819Y-0.0291
X0.3187Y-1.8861
X0.3386Y-0.4389
X0.339Y-2.5983
X0.3543Y-0.248
X0.3543Y-0.3382
X0.3825Y-0.1098
X0.4378Y-0.9704
X0.4882Y-0.4133
X0.5161Y-0.5078
X0.5904Y-0.4232
X0.5904Y-0.4507
X0.5906Y-0.366
X0.6173Y-0.8217
X0.6425Y-0.5972
X0.6425Y-0.822
X0.6654Y-2.796
X0.7299Y-0.6713
X0.7327Y-0.7461
X0.7528Y-1.7202
X0.8146Y-2.5983
X1.002Y-0.3405
X1.0875Y-1.8294
X1.2909Y-0.9704
X1.4551Y-2.6515
X1.4933Y-1.7204
X1.7018Y-1.8187
X1.7543Y-0.3405
X1.9287Y-2.4664
X2.0433Y-0.9704
X2.2398Y-1.7204
X2.487Y-2.8857
X2.4981Y-1.8074
X2.5012Y-0.3405
X2.5047Y-2.7546
X2.6787Y-2.4664
X2.7311Y-2.8861
X2.7528Y-1.92
X2.7894Y-1.9149
X2.7917Y-0.9704
X2.8157Y-1.9133
X2.861Y-2.8861
X2.9878Y-1.7204
X3.0457Y-0.3405
X3.0862Y-0.9704
X3.1043Y-2.8861
X3.228Y-3.0727
X3.2469Y-0.3405
X3.2469Y-2.4664
X3.263Y-1.8055
X3.2846Y-2.8062
X3.2855Y-2.6801
X3.305Y-2.6606
X3.3067Y-2.7838
X3.3299Y-2.7609
X3.3441Y-2.8676
X3.378Y-2.6318
X3.4Y-2.6105
X3.426Y-3.0507
X3.4272Y-2.3087
X3.4283Y-2.8534
X3.4283Y-2.8716
X3.4496Y-2.8473
X3.4524Y-2.3087
X3.4705Y-2.8125
X3.4866Y-2.7944
X3.5193Y-2.3925
X3.5201Y-2.9574
X3.5398Y-0.9704
X3.5622Y-2.7149
X3.6Y-2.5421
X3.6169Y-2.6184
X3.6287Y-2.9369
X3.6591Y-2.8184
X3.6965Y-3.1259
X3.7201Y-3.1038
X3.7335Y-1.7204
X3.7614Y-2.7351
X3.7689Y-2.442
X3.7815Y-3.1987
X3.8024Y-3.0011
X3.8575Y-3.1782
X3.9287Y-3.0405
X4.0079Y-0.3405
X4.1776Y-2.4664
X4.2874Y-0.9704
X4.3102Y-2.5122
X4.4819Y-1.7204
X4.7437Y-0.3405
X4.9248Y-2.4664
X5.0339Y-0.9704
X5.2315Y-1.7204
X5.3031Y-2.6515
X5.4878Y-0.3405
X5.6744Y-2.4664
X5.7839Y-0.9704
X5.9791Y-1.7204
X6.2378Y-0.3405
X6.4197Y-2.4664
X6.5311Y-0.9704
X6.7268Y-1.7204
X6.9894Y-0.3405
X7.1697Y-2.4664
X7.2783Y-0.9704
X7.4744Y-1.7204
X7.7346Y-0.3405
X7.9161Y-2.4664
X8.026Y-0.9704
X8.0315Y-2.6534
X8.2209Y-1.7204
X8.4827Y-0.3405
X8.6642Y-2.4664
X8.7744Y-0.9704
X8.8972Y-2.6909
X8.972Y-1.7204
X9.137Y-1.7204
X9.2512Y-0.3405
X9.5232Y-0.9704
X9.9Y-2.5058
X9.9374Y-2.6905
X9.9571Y-0.9704
X10.0913Y-0.3412
X10.1224Y-2.5058
X10.1842Y-2.0901
T2
X3.4873Y-2.8594
X3.5625Y-2.7842
X3.5625Y-2.9345
X3.6377Y-2.8594
T3
X0.2403Y0.1121
X0.2403Y0.0589
X0.2737Y0.1121
X0.2737Y0.0589
X0.3072Y0.1121
X0.3072Y0.0589
X0.3407Y0.1121
X0.3407Y0.0589
X0.3741Y0.1121
X0.3741Y0.0589
X0.4076Y0.1121
X0.4076Y0.0589
X0.4411Y0.1121
X0.4411Y0.0589
X0.4745Y0.1121
X0.4745Y0.0589
T5
X-0.1Y-0.2
X-0.0563Y-1.4
X-0.0062Y-2.45
X-0.0062Y-3.2
X0.0375Y-0.65
X0.0375Y-2.9
X0.15Y-0.1
X0.1812Y-1.7
X0.1938Y-1.3
X0.2437Y-2.35
X0.2437Y-3.1
X0.2875Y-0.55
X0.2875Y-2.8
X0.3187Y-2.15
X0.4312Y-1.6
X0.5687Y-2.05
X0.65Y-0.2
X0.8375Y-2.45
X0.8812Y-2.9
X0.9Y-0.1
X0.975Y-0.65
X1.025Y-3.2
X1.0875Y-2.35
X1.1312Y-2.8
X1.1625Y-1.4
X1.225Y-0.55
X1.275Y-3.1
X1.4Y-0.2
X1.4125Y-1.3
X1.5375Y-2.15
X1.65Y-0.1
X1.725Y-0.65
X1.7875Y-2.05
X1.8187Y-2.9
X1.9125Y-1.4
X1.9625Y-3.2
X1.975Y-0.55
X2.0688Y-2.8
X2.15Y-0.2
X2.1625Y-1.3
X2.2125Y-3.1
X2.2875Y-2.15
X2.4Y-0.1
X2.475Y-0.65
X2.5375Y-2.05
X2.6625Y-1.4
X2.725Y-0.55
X2.9Y-0.2
X2.9125Y-1.3
X3.0375Y-2.15
X3.15Y-0.1
X3.225Y-0.65
X3.2875Y-2.05
X3.4125Y-1.4
X3.475Y-0.55
X3.65Y-0.2
X3.6625Y-1.3
X3.7875Y-2.15
X3.9Y-0.1
X3.975Y-0.65
X4.0375Y-2.05
X4.1625Y-1.4
X4.225Y-0.55
X4.4Y-0.2
X4.4125Y-1.3
X4.5375Y-2.15
X4.6312Y-2.9
X4.65Y-0.1
X4.725Y-0.65
X4.7875Y-2.05
X4.8812Y-2.8
X4.9125Y-1.4
X4.975Y-0.55
X5.15Y-0.2
X5.15Y-3.2
X5.1625Y-1.3
X5.2875Y-2.15
X5.4Y-0.1
X5.4Y-3.1
X5.475Y-0.65
X5.5375Y-2.05
X5.6625Y-1.4
X5.725Y-0.55
X5.9Y-0.2
X5.9125Y-1.3
X6.0375Y-2.15
X6.15Y-0.1
X6.225Y-0.65
X6.2875Y-2.05
X6.4125Y-1.4
X6.475Y-0.55
X6.65Y-0.2
X6.6625Y-1.3
X6.7875Y-2.15
X6.9Y-0.1
X6.975Y-0.65
X7.0375Y-2.05
X7.1625Y-1.4
X7.225Y-0.55
X7.4Y-0.2
X7.4125Y-1.3
X7.4437Y-2.9
X7.5375Y-2.15
X7.65Y-0.1
X7.6937Y-2.8
X7.725Y-0.65
X7.7875Y-2.05
X7.9125Y-1.4
X7.975Y-0.55
X8.15Y-0.2
X8.1625Y-1.3
X8.2875Y-2.15
X8.2875Y-2.9
X8.4Y-0.1
X8.4313Y-3.2
X8.475Y-0.65
X8.5375Y-2.05
X8.5375Y-2.8
X8.6625Y-1.4
X8.6813Y-3.1
X8.725Y-0.55
X8.9Y-0.2
X8.9125Y-1.3
X9.15Y-0.1
X9.225Y-0.65
X9.225Y-2.9
X9.3625Y-1.4
X9.3688Y-2.45
X9.3688Y-3.2
X9.4625Y-1.65
X9.475Y-0.55
X9.475Y-2.8
X9.6188Y-2.35
X9.6188Y-3.1
X9.65Y-0.2
X9.6937Y-2.15
X9.8312Y-1.4
X9.9Y-0.1
X9.9313Y-1.65
X9.9437Y-2.05
X9.975Y0.1
X10.1625Y-2.9
X10.2062Y-1.025
X10.225Y0.2
X10.3063Y-1.275
X10.3063Y-3.2
X10.4Y-0.2
X10.4Y-2.45
X10.4125Y-0.6
X10.4125Y-2.8
X10.5125Y-0.85
X10.5563Y-3.1
X10.65Y-0.1
X10.65Y-2.35
T6
X0.0Y-1.975
X0.9375Y-1.975
X2.8125Y-3.275
X3.0Y-3.275
X6.75Y-3.275
X7.5Y-3.275
X9.375Y-1.975
X9.5625Y-1.225
X9.6562Y0.275
X10.3125Y-1.975
X10.5Y-1.225
X10.5938Y0.275
X10.6813Y-0.6562
X10.6813Y-1.5938
T4
G00X0.1871Y0.2463
M15
G01X0.1871Y0.2148
M16
G05
G00X0.1871Y0.127
M15
G01X0.1871Y0.068
M16
G05
G00X0.5277Y0.2463
M15
G01X0.5277Y0.2148
M16
G05
G00X0.5277Y0.127
M15
G01X0.5277Y0.068
M16
G05
T0
M30
