%TF.GenerationSoftware,KiCad,Pcbnew,7.0.1*%
%TF.CreationDate,2023-05-13T17:15:19-04:00*%
%TF.ProjectId,PCB,5043422e-6b69-4636-9164-5f7063625858,rev?*%
%TF.SameCoordinates,Original*%
%TF.FileFunction,Legend,Top*%
%TF.FilePolarity,Positive*%
%FSLAX46Y46*%
G04 Gerber Fmt 4.6, Leading zero omitted, Abs format (unit mm)*
G04 Created by KiCad (PCBNEW 7.0.1) date 2023-05-13 17:15:19*
%MOMM*%
%LPD*%
G01*
G04 APERTURE LIST*
%ADD10C,0.200000*%
%ADD11C,3.987800*%
%ADD12C,1.750000*%
%ADD13C,3.300000*%
%ADD14C,0.700000*%
%ADD15O,0.900000X1.700000*%
%ADD16O,0.900000X2.400000*%
G04 APERTURE END LIST*
D10*
G36*
X260465614Y-39119028D02*
G01*
X260036235Y-39119028D01*
X260036235Y-39322238D01*
X260431420Y-39322238D01*
X260431420Y-39509816D01*
X260036235Y-39509816D01*
X260036235Y-39947500D01*
X259780757Y-39947500D01*
X259780757Y-38931449D01*
X260465614Y-38931449D01*
X260465614Y-39119028D01*
G37*
G36*
X261043412Y-38915957D02*
G01*
X261057549Y-38916373D01*
X261071496Y-38917067D01*
X261085250Y-38918039D01*
X261098813Y-38919288D01*
X261112184Y-38920815D01*
X261125363Y-38922620D01*
X261138350Y-38924702D01*
X261151146Y-38927062D01*
X261163749Y-38929699D01*
X261176161Y-38932615D01*
X261188382Y-38935807D01*
X261200410Y-38939278D01*
X261212247Y-38943026D01*
X261223892Y-38947052D01*
X261235345Y-38951355D01*
X261246606Y-38955936D01*
X261257676Y-38960795D01*
X261268554Y-38965931D01*
X261279240Y-38971345D01*
X261289734Y-38977036D01*
X261300037Y-38983005D01*
X261310148Y-38989252D01*
X261320067Y-38995777D01*
X261329794Y-39002579D01*
X261339329Y-39009658D01*
X261348673Y-39017016D01*
X261357825Y-39024651D01*
X261366785Y-39032563D01*
X261375554Y-39040754D01*
X261384130Y-39049222D01*
X261392515Y-39057967D01*
X261400675Y-39066954D01*
X261408575Y-39076147D01*
X261416217Y-39085545D01*
X261423599Y-39095149D01*
X261430722Y-39104959D01*
X261437587Y-39114974D01*
X261444192Y-39125195D01*
X261450538Y-39135621D01*
X261456625Y-39146253D01*
X261462454Y-39157091D01*
X261468023Y-39168134D01*
X261473333Y-39179382D01*
X261478384Y-39190837D01*
X261483176Y-39202497D01*
X261487709Y-39214362D01*
X261491983Y-39226434D01*
X261495998Y-39238710D01*
X261499754Y-39251193D01*
X261503251Y-39263881D01*
X261506489Y-39276774D01*
X261509468Y-39289873D01*
X261512188Y-39303178D01*
X261514648Y-39316689D01*
X261516850Y-39330405D01*
X261518793Y-39344326D01*
X261520477Y-39358453D01*
X261521901Y-39372786D01*
X261523067Y-39387325D01*
X261523973Y-39402069D01*
X261524621Y-39417018D01*
X261525010Y-39432174D01*
X261525139Y-39447534D01*
X261525010Y-39462895D01*
X261524621Y-39478049D01*
X261523973Y-39492998D01*
X261523067Y-39507740D01*
X261521901Y-39522277D01*
X261520477Y-39536607D01*
X261518793Y-39550731D01*
X261516850Y-39564649D01*
X261514648Y-39578361D01*
X261512188Y-39591867D01*
X261509468Y-39605166D01*
X261506489Y-39618260D01*
X261503251Y-39631148D01*
X261499754Y-39643829D01*
X261495998Y-39656305D01*
X261491983Y-39668574D01*
X261487709Y-39680637D01*
X261483176Y-39692495D01*
X261478384Y-39704146D01*
X261473333Y-39715591D01*
X261468023Y-39726830D01*
X261462454Y-39737863D01*
X261456625Y-39748690D01*
X261450538Y-39759310D01*
X261444192Y-39769725D01*
X261437587Y-39779934D01*
X261430722Y-39789936D01*
X261423599Y-39799733D01*
X261416217Y-39809323D01*
X261408575Y-39818707D01*
X261400675Y-39827885D01*
X261392515Y-39836857D01*
X261384130Y-39845588D01*
X261375554Y-39854041D01*
X261366785Y-39862217D01*
X261357825Y-39870116D01*
X261348673Y-39877738D01*
X261339329Y-39885083D01*
X261329794Y-39892151D01*
X261320067Y-39898941D01*
X261310148Y-39905454D01*
X261300037Y-39911690D01*
X261289734Y-39917649D01*
X261279240Y-39923331D01*
X261268554Y-39928735D01*
X261257676Y-39933863D01*
X261246606Y-39938713D01*
X261235345Y-39943286D01*
X261223892Y-39947582D01*
X261212247Y-39951601D01*
X261200410Y-39955343D01*
X261188382Y-39958807D01*
X261176161Y-39961995D01*
X261163749Y-39964905D01*
X261151146Y-39967538D01*
X261138350Y-39969894D01*
X261125363Y-39971972D01*
X261112184Y-39973774D01*
X261098813Y-39975298D01*
X261085250Y-39976545D01*
X261071496Y-39977515D01*
X261057549Y-39978208D01*
X261043412Y-39978624D01*
X261029082Y-39978763D01*
X261014708Y-39978622D01*
X261000528Y-39978202D01*
X260986544Y-39977500D01*
X260972753Y-39976519D01*
X260959158Y-39975256D01*
X260945757Y-39973714D01*
X260932551Y-39971890D01*
X260919539Y-39969787D01*
X260906722Y-39967402D01*
X260894100Y-39964738D01*
X260881672Y-39961792D01*
X260869439Y-39958567D01*
X260857400Y-39955061D01*
X260845556Y-39951274D01*
X260833907Y-39947207D01*
X260822452Y-39942859D01*
X260811192Y-39938231D01*
X260800127Y-39933322D01*
X260789256Y-39928133D01*
X260778580Y-39922663D01*
X260768099Y-39916913D01*
X260757812Y-39910882D01*
X260747720Y-39904571D01*
X260737822Y-39897979D01*
X260728119Y-39891107D01*
X260718611Y-39883954D01*
X260709297Y-39876521D01*
X260700178Y-39868808D01*
X260691254Y-39860813D01*
X260682524Y-39852539D01*
X260673989Y-39843983D01*
X260665648Y-39835148D01*
X260657534Y-39826074D01*
X260649677Y-39816804D01*
X260642078Y-39807338D01*
X260634737Y-39797676D01*
X260627653Y-39787817D01*
X260620826Y-39777763D01*
X260614257Y-39767513D01*
X260607946Y-39757066D01*
X260601893Y-39746424D01*
X260596097Y-39735585D01*
X260590558Y-39724551D01*
X260585277Y-39713320D01*
X260580254Y-39701894D01*
X260575489Y-39690271D01*
X260570981Y-39678452D01*
X260566730Y-39666437D01*
X260562737Y-39654226D01*
X260559002Y-39641819D01*
X260555525Y-39629216D01*
X260552305Y-39616417D01*
X260549342Y-39603422D01*
X260546637Y-39590230D01*
X260544190Y-39576843D01*
X260542001Y-39563260D01*
X260540069Y-39549480D01*
X260538394Y-39535505D01*
X260536977Y-39521333D01*
X260535818Y-39506966D01*
X260534917Y-39492402D01*
X260534273Y-39477642D01*
X260533886Y-39462686D01*
X260533757Y-39447534D01*
X260799005Y-39447534D01*
X260799078Y-39459345D01*
X260799295Y-39470902D01*
X260799658Y-39482204D01*
X260800165Y-39493254D01*
X260800818Y-39504049D01*
X260801615Y-39514591D01*
X260802558Y-39524878D01*
X260803646Y-39534912D01*
X260804878Y-39544692D01*
X260806999Y-39558887D01*
X260809446Y-39572510D01*
X260812220Y-39585563D01*
X260815320Y-39598044D01*
X260817568Y-39606048D01*
X260821168Y-39617639D01*
X260825009Y-39628874D01*
X260829091Y-39639753D01*
X260833413Y-39650275D01*
X260837975Y-39660441D01*
X260842778Y-39670250D01*
X260847821Y-39679704D01*
X260853105Y-39688801D01*
X260858629Y-39697541D01*
X260864393Y-39705925D01*
X260868370Y-39711317D01*
X260874630Y-39719162D01*
X260881044Y-39726578D01*
X260889837Y-39735798D01*
X260898904Y-39744255D01*
X260908247Y-39751949D01*
X260917864Y-39758879D01*
X260927755Y-39765046D01*
X260937922Y-39770450D01*
X260943108Y-39772866D01*
X260953653Y-39777159D01*
X260964281Y-39780880D01*
X260974994Y-39784029D01*
X260985790Y-39786605D01*
X260996670Y-39788608D01*
X261007634Y-39790039D01*
X261018682Y-39790898D01*
X261029815Y-39791184D01*
X261041126Y-39790875D01*
X261052346Y-39789948D01*
X261063474Y-39788402D01*
X261074511Y-39786238D01*
X261085456Y-39783456D01*
X261096310Y-39780056D01*
X261107072Y-39776037D01*
X261117742Y-39771400D01*
X261128187Y-39766111D01*
X261138274Y-39760135D01*
X261148001Y-39753471D01*
X261157370Y-39746121D01*
X261166381Y-39738084D01*
X261175032Y-39729360D01*
X261183325Y-39719949D01*
X261191259Y-39709851D01*
X261197308Y-39701248D01*
X261203092Y-39692383D01*
X261208608Y-39683256D01*
X261213859Y-39673867D01*
X261218844Y-39664217D01*
X261223562Y-39654304D01*
X261228014Y-39644130D01*
X261232200Y-39633693D01*
X261236120Y-39622995D01*
X261239774Y-39612035D01*
X261242062Y-39604583D01*
X261245248Y-39592947D01*
X261248121Y-39580663D01*
X261250680Y-39567731D01*
X261252927Y-39554150D01*
X261254859Y-39539921D01*
X261255974Y-39530075D01*
X261256949Y-39519941D01*
X261257785Y-39509519D01*
X261258481Y-39498808D01*
X261259038Y-39487810D01*
X261259456Y-39476523D01*
X261259735Y-39464948D01*
X261259874Y-39453085D01*
X261259891Y-39447046D01*
X261259817Y-39435583D01*
X261259594Y-39424335D01*
X261259222Y-39413303D01*
X261258701Y-39402487D01*
X261258031Y-39391886D01*
X261257212Y-39381501D01*
X261256245Y-39371332D01*
X261255129Y-39361378D01*
X261253863Y-39351639D01*
X261251687Y-39337436D01*
X261249175Y-39323719D01*
X261246329Y-39310486D01*
X261243147Y-39297738D01*
X261240840Y-39289509D01*
X261237203Y-39277490D01*
X261233341Y-39265887D01*
X261229257Y-39254701D01*
X261224949Y-39243931D01*
X261220418Y-39233578D01*
X261215664Y-39223641D01*
X261210687Y-39214121D01*
X261205486Y-39205017D01*
X261200062Y-39196329D01*
X261194415Y-39188058D01*
X261190526Y-39182775D01*
X261184269Y-39175019D01*
X261175692Y-39165339D01*
X261166847Y-39156415D01*
X261157736Y-39148246D01*
X261148358Y-39140833D01*
X261138712Y-39134175D01*
X261128799Y-39128273D01*
X261118619Y-39123127D01*
X261116032Y-39121959D01*
X261105602Y-39117608D01*
X261095073Y-39113838D01*
X261084445Y-39110647D01*
X261073717Y-39108037D01*
X261062890Y-39106007D01*
X261051964Y-39104556D01*
X261040939Y-39103686D01*
X261029815Y-39103396D01*
X261018106Y-39103663D01*
X261006673Y-39104465D01*
X260995514Y-39105800D01*
X260984630Y-39107670D01*
X260974020Y-39110075D01*
X260963686Y-39113013D01*
X260953626Y-39116486D01*
X260943841Y-39120493D01*
X260934297Y-39125183D01*
X260924836Y-39130706D01*
X260915459Y-39137060D01*
X260906167Y-39144246D01*
X260896958Y-39152264D01*
X260887833Y-39161114D01*
X260881045Y-39168297D01*
X260874303Y-39175949D01*
X260869836Y-39181310D01*
X260862088Y-39191801D01*
X260856529Y-39200215D01*
X260851183Y-39209097D01*
X260846053Y-39218447D01*
X260841137Y-39228265D01*
X260836436Y-39238551D01*
X260831949Y-39249306D01*
X260827677Y-39260528D01*
X260823620Y-39272218D01*
X260819778Y-39284376D01*
X260818545Y-39288532D01*
X260815053Y-39301260D01*
X260811904Y-39314438D01*
X260809099Y-39328067D01*
X260806638Y-39342147D01*
X260804520Y-39356678D01*
X260803298Y-39366616D01*
X260802230Y-39376754D01*
X260801314Y-39387092D01*
X260800551Y-39397631D01*
X260799940Y-39408370D01*
X260799482Y-39419309D01*
X260799177Y-39430449D01*
X260799024Y-39441789D01*
X260799005Y-39447534D01*
X260533757Y-39447534D01*
X260533886Y-39432263D01*
X260534273Y-39417193D01*
X260534917Y-39402324D01*
X260535818Y-39387657D01*
X260536977Y-39373191D01*
X260538394Y-39358926D01*
X260540069Y-39344862D01*
X260542001Y-39331000D01*
X260544190Y-39317339D01*
X260546637Y-39303880D01*
X260549342Y-39290621D01*
X260552305Y-39277564D01*
X260555525Y-39264709D01*
X260559002Y-39252054D01*
X260562737Y-39239601D01*
X260566730Y-39227349D01*
X260570981Y-39215299D01*
X260575489Y-39203450D01*
X260580254Y-39191802D01*
X260585277Y-39180356D01*
X260590558Y-39169110D01*
X260596097Y-39158067D01*
X260601893Y-39147224D01*
X260607946Y-39136583D01*
X260614257Y-39126143D01*
X260620826Y-39115904D01*
X260627653Y-39105867D01*
X260634737Y-39096031D01*
X260642078Y-39086396D01*
X260649677Y-39076963D01*
X260657534Y-39067731D01*
X260665648Y-39058700D01*
X260673989Y-39049909D01*
X260682524Y-39041398D01*
X260691254Y-39033165D01*
X260700178Y-39025212D01*
X260709297Y-39017537D01*
X260718611Y-39010142D01*
X260728119Y-39003026D01*
X260737822Y-38996189D01*
X260747720Y-38989631D01*
X260757812Y-38983352D01*
X260768099Y-38977352D01*
X260778580Y-38971631D01*
X260789256Y-38966189D01*
X260800127Y-38961026D01*
X260811192Y-38956143D01*
X260822452Y-38951538D01*
X260833907Y-38947213D01*
X260845556Y-38943166D01*
X260857400Y-38939399D01*
X260869439Y-38935911D01*
X260881672Y-38932701D01*
X260894100Y-38929771D01*
X260906722Y-38927120D01*
X260919539Y-38924748D01*
X260932551Y-38922655D01*
X260945757Y-38920841D01*
X260959158Y-38919306D01*
X260972753Y-38918050D01*
X260986544Y-38917074D01*
X261000528Y-38916376D01*
X261014708Y-38915957D01*
X261029082Y-38915818D01*
X261043412Y-38915957D01*
G37*
G36*
X262093314Y-38931490D02*
G01*
X262103708Y-38931613D01*
X262113929Y-38931818D01*
X262123977Y-38932106D01*
X262133850Y-38932475D01*
X262148335Y-38933183D01*
X262162430Y-38934075D01*
X262176133Y-38935152D01*
X262189446Y-38936413D01*
X262202368Y-38937859D01*
X262214900Y-38939490D01*
X262227041Y-38941306D01*
X262231001Y-38941952D01*
X262242778Y-38944121D01*
X262254388Y-38946689D01*
X262265831Y-38949656D01*
X262277106Y-38953023D01*
X262288213Y-38956789D01*
X262299153Y-38960954D01*
X262309926Y-38965519D01*
X262320531Y-38970482D01*
X262330969Y-38975845D01*
X262341239Y-38981608D01*
X262347993Y-38985671D01*
X262358098Y-38992337D01*
X262367803Y-38999330D01*
X262377108Y-39006648D01*
X262386015Y-39014293D01*
X262394522Y-39022265D01*
X262402630Y-39030562D01*
X262410339Y-39039186D01*
X262417648Y-39048136D01*
X262424558Y-39057413D01*
X262431069Y-39067015D01*
X262435188Y-39073599D01*
X262440950Y-39083837D01*
X262446144Y-39094587D01*
X262450773Y-39105848D01*
X262454834Y-39117620D01*
X262458329Y-39129902D01*
X262461257Y-39142695D01*
X262463618Y-39156000D01*
X262465413Y-39169815D01*
X262466641Y-39184141D01*
X262467145Y-39193976D01*
X262467396Y-39204037D01*
X262467428Y-39209153D01*
X262467221Y-39223485D01*
X262466600Y-39237474D01*
X262465565Y-39251122D01*
X262464115Y-39264429D01*
X262462252Y-39277393D01*
X262459975Y-39290017D01*
X262457283Y-39302299D01*
X262454178Y-39314239D01*
X262450658Y-39325838D01*
X262446725Y-39337095D01*
X262442377Y-39348010D01*
X262437615Y-39358584D01*
X262432439Y-39368817D01*
X262426849Y-39378708D01*
X262420845Y-39388257D01*
X262414427Y-39397465D01*
X262407692Y-39406386D01*
X262400677Y-39415077D01*
X262393381Y-39423537D01*
X262385805Y-39431765D01*
X262377948Y-39439763D01*
X262369811Y-39447531D01*
X262361393Y-39455067D01*
X262352695Y-39462372D01*
X262343716Y-39469447D01*
X262334457Y-39476290D01*
X262324917Y-39482903D01*
X262315097Y-39489285D01*
X262304996Y-39495436D01*
X262294615Y-39501356D01*
X262283953Y-39507045D01*
X262273011Y-39512503D01*
X262617149Y-39947500D01*
X262303785Y-39947500D01*
X262018754Y-39572342D01*
X261926674Y-39572342D01*
X261926674Y-39947500D01*
X261671196Y-39947500D01*
X261671196Y-39119028D01*
X261926674Y-39119028D01*
X261926674Y-39384764D01*
X262000191Y-39384764D01*
X262010123Y-39384708D01*
X262022917Y-39384460D01*
X262035199Y-39384014D01*
X262046971Y-39383369D01*
X262058231Y-39382525D01*
X262068979Y-39381483D01*
X262079217Y-39380243D01*
X262088942Y-39378804D01*
X262091294Y-39378414D01*
X262102698Y-39376083D01*
X262113553Y-39373061D01*
X262123859Y-39369348D01*
X262133617Y-39364942D01*
X262142826Y-39359845D01*
X262151486Y-39354056D01*
X262154797Y-39351547D01*
X262163684Y-39344337D01*
X262171661Y-39336629D01*
X262178728Y-39328423D01*
X262184885Y-39319719D01*
X262190131Y-39310517D01*
X262191678Y-39307339D01*
X262195745Y-39297072D01*
X262198492Y-39287664D01*
X262200654Y-39277480D01*
X262202232Y-39266522D01*
X262203225Y-39254788D01*
X262203599Y-39244842D01*
X262203646Y-39239684D01*
X262203282Y-39228333D01*
X262202191Y-39217482D01*
X262200372Y-39207133D01*
X262197826Y-39197285D01*
X262194552Y-39187937D01*
X262189664Y-39177381D01*
X262188747Y-39175692D01*
X262182556Y-39166046D01*
X262174974Y-39157259D01*
X262167593Y-39150593D01*
X262159246Y-39144523D01*
X262149933Y-39139049D01*
X262139654Y-39134171D01*
X262130481Y-39130756D01*
X262120912Y-39127840D01*
X262110949Y-39125421D01*
X262100590Y-39123500D01*
X262089837Y-39122078D01*
X262086165Y-39121714D01*
X262074576Y-39120801D01*
X262064144Y-39120185D01*
X262053009Y-39119699D01*
X262041170Y-39119345D01*
X262031192Y-39119156D01*
X262020764Y-39119051D01*
X262012648Y-39119028D01*
X261926674Y-39119028D01*
X261671196Y-39119028D01*
X261671196Y-38931449D01*
X262082745Y-38931449D01*
X262093314Y-38931490D01*
G37*
G36*
X263602180Y-39649279D02*
G01*
X263601981Y-39661621D01*
X263601382Y-39673825D01*
X263600383Y-39685893D01*
X263598986Y-39697822D01*
X263597189Y-39709615D01*
X263594993Y-39721270D01*
X263592398Y-39732787D01*
X263589403Y-39744167D01*
X263586009Y-39755410D01*
X263582216Y-39766516D01*
X263579466Y-39773843D01*
X263575003Y-39784633D01*
X263570132Y-39795115D01*
X263564853Y-39805287D01*
X263559167Y-39815150D01*
X263553072Y-39824705D01*
X263546570Y-39833949D01*
X263539660Y-39842885D01*
X263532342Y-39851512D01*
X263524616Y-39859830D01*
X263516482Y-39867838D01*
X263510833Y-39873005D01*
X263501007Y-39881492D01*
X263490855Y-39889549D01*
X263480377Y-39897177D01*
X263469572Y-39904375D01*
X263458440Y-39911145D01*
X263446983Y-39917484D01*
X263435199Y-39923395D01*
X263423089Y-39928876D01*
X263410653Y-39933928D01*
X263397890Y-39938550D01*
X263389200Y-39941393D01*
X263375870Y-39945278D01*
X263362167Y-39948781D01*
X263348090Y-39951901D01*
X263338497Y-39953769D01*
X263328739Y-39955468D01*
X263318815Y-39956996D01*
X263308725Y-39958355D01*
X263298468Y-39959543D01*
X263288046Y-39960562D01*
X263277458Y-39961412D01*
X263266703Y-39962091D01*
X263255783Y-39962600D01*
X263244697Y-39962940D01*
X263233444Y-39963110D01*
X263227756Y-39963131D01*
X263215096Y-39963086D01*
X263202577Y-39962951D01*
X263190200Y-39962725D01*
X263177965Y-39962410D01*
X263165871Y-39962004D01*
X263153919Y-39961508D01*
X263142109Y-39960922D01*
X263130440Y-39960246D01*
X263118914Y-39959480D01*
X263107528Y-39958623D01*
X263100017Y-39958002D01*
X263088967Y-39957047D01*
X263078167Y-39956016D01*
X263067615Y-39954906D01*
X263057313Y-39953720D01*
X263047259Y-39952456D01*
X263037455Y-39951115D01*
X263024769Y-39949207D01*
X263012526Y-39947162D01*
X263000727Y-39944979D01*
X262994993Y-39943836D01*
X262994993Y-39744289D01*
X263018440Y-39744289D01*
X263028128Y-39747841D01*
X263037960Y-39751321D01*
X263047935Y-39754729D01*
X263058053Y-39758066D01*
X263068314Y-39761332D01*
X263078718Y-39764525D01*
X263082920Y-39765783D01*
X263093918Y-39768597D01*
X263105846Y-39770935D01*
X263116059Y-39772461D01*
X263126866Y-39773683D01*
X263138270Y-39774598D01*
X263150268Y-39775209D01*
X263162862Y-39775514D01*
X263169382Y-39775553D01*
X263181882Y-39775385D01*
X263193828Y-39774883D01*
X263205220Y-39774046D01*
X263216059Y-39772873D01*
X263226344Y-39771367D01*
X263236075Y-39769525D01*
X263248187Y-39766548D01*
X263259316Y-39762976D01*
X263269459Y-39758809D01*
X263274162Y-39756502D01*
X263282985Y-39751445D01*
X263291137Y-39745923D01*
X263300382Y-39738365D01*
X263308577Y-39730080D01*
X263315723Y-39721068D01*
X263321820Y-39711328D01*
X263325942Y-39703012D01*
X263330557Y-39692299D01*
X263334481Y-39681073D01*
X263337712Y-39669335D01*
X263339800Y-39659575D01*
X263341445Y-39649486D01*
X263342647Y-39639070D01*
X263343406Y-39628325D01*
X263343527Y-39625587D01*
X263343928Y-39614383D01*
X263344275Y-39602873D01*
X263344569Y-39591058D01*
X263344809Y-39578937D01*
X263344996Y-39566511D01*
X263345130Y-39553780D01*
X263345210Y-39540744D01*
X263345235Y-39530766D01*
X263345237Y-39527402D01*
X263345237Y-39119028D01*
X263111008Y-39119028D01*
X263111008Y-38931449D01*
X263602180Y-38931449D01*
X263602180Y-39649279D01*
G37*
G36*
X264246901Y-38915957D02*
G01*
X264261039Y-38916373D01*
X264274985Y-38917067D01*
X264288739Y-38918039D01*
X264302302Y-38919288D01*
X264315673Y-38920815D01*
X264328852Y-38922620D01*
X264341839Y-38924702D01*
X264354635Y-38927062D01*
X264367239Y-38929699D01*
X264379651Y-38932615D01*
X264391871Y-38935807D01*
X264403899Y-38939278D01*
X264415736Y-38943026D01*
X264427381Y-38947052D01*
X264438834Y-38951355D01*
X264450096Y-38955936D01*
X264461165Y-38960795D01*
X264472043Y-38965931D01*
X264482729Y-38971345D01*
X264493223Y-38977036D01*
X264503526Y-38983005D01*
X264513637Y-38989252D01*
X264523556Y-38995777D01*
X264533283Y-39002579D01*
X264542819Y-39009658D01*
X264552162Y-39017016D01*
X264561314Y-39024651D01*
X264570274Y-39032563D01*
X264579043Y-39040754D01*
X264587620Y-39049222D01*
X264596004Y-39057967D01*
X264604164Y-39066954D01*
X264612064Y-39076147D01*
X264619706Y-39085545D01*
X264627088Y-39095149D01*
X264634211Y-39104959D01*
X264641076Y-39114974D01*
X264647681Y-39125195D01*
X264654027Y-39135621D01*
X264660115Y-39146253D01*
X264665943Y-39157091D01*
X264671512Y-39168134D01*
X264676822Y-39179382D01*
X264681873Y-39190837D01*
X264686665Y-39202497D01*
X264691198Y-39214362D01*
X264695472Y-39226434D01*
X264699487Y-39238710D01*
X264703243Y-39251193D01*
X264706740Y-39263881D01*
X264709978Y-39276774D01*
X264712957Y-39289873D01*
X264715677Y-39303178D01*
X264718137Y-39316689D01*
X264720339Y-39330405D01*
X264722282Y-39344326D01*
X264723966Y-39358453D01*
X264725390Y-39372786D01*
X264726556Y-39387325D01*
X264727463Y-39402069D01*
X264728110Y-39417018D01*
X264728499Y-39432174D01*
X264728628Y-39447534D01*
X264728499Y-39462895D01*
X264728110Y-39478049D01*
X264727463Y-39492998D01*
X264726556Y-39507740D01*
X264725390Y-39522277D01*
X264723966Y-39536607D01*
X264722282Y-39550731D01*
X264720339Y-39564649D01*
X264718137Y-39578361D01*
X264715677Y-39591867D01*
X264712957Y-39605166D01*
X264709978Y-39618260D01*
X264706740Y-39631148D01*
X264703243Y-39643829D01*
X264699487Y-39656305D01*
X264695472Y-39668574D01*
X264691198Y-39680637D01*
X264686665Y-39692495D01*
X264681873Y-39704146D01*
X264676822Y-39715591D01*
X264671512Y-39726830D01*
X264665943Y-39737863D01*
X264660115Y-39748690D01*
X264654027Y-39759310D01*
X264647681Y-39769725D01*
X264641076Y-39779934D01*
X264634211Y-39789936D01*
X264627088Y-39799733D01*
X264619706Y-39809323D01*
X264612064Y-39818707D01*
X264604164Y-39827885D01*
X264596004Y-39836857D01*
X264587620Y-39845588D01*
X264579043Y-39854041D01*
X264570274Y-39862217D01*
X264561314Y-39870116D01*
X264552162Y-39877738D01*
X264542819Y-39885083D01*
X264533283Y-39892151D01*
X264523556Y-39898941D01*
X264513637Y-39905454D01*
X264503526Y-39911690D01*
X264493223Y-39917649D01*
X264482729Y-39923331D01*
X264472043Y-39928735D01*
X264461165Y-39933863D01*
X264450096Y-39938713D01*
X264438834Y-39943286D01*
X264427381Y-39947582D01*
X264415736Y-39951601D01*
X264403899Y-39955343D01*
X264391871Y-39958807D01*
X264379651Y-39961995D01*
X264367239Y-39964905D01*
X264354635Y-39967538D01*
X264341839Y-39969894D01*
X264328852Y-39971972D01*
X264315673Y-39973774D01*
X264302302Y-39975298D01*
X264288739Y-39976545D01*
X264274985Y-39977515D01*
X264261039Y-39978208D01*
X264246901Y-39978624D01*
X264232571Y-39978763D01*
X264218197Y-39978622D01*
X264204018Y-39978202D01*
X264190033Y-39977500D01*
X264176243Y-39976519D01*
X264162647Y-39975256D01*
X264149246Y-39973714D01*
X264136040Y-39971890D01*
X264123028Y-39969787D01*
X264110211Y-39967402D01*
X264097589Y-39964738D01*
X264085161Y-39961792D01*
X264072928Y-39958567D01*
X264060889Y-39955061D01*
X264049045Y-39951274D01*
X264037396Y-39947207D01*
X264025942Y-39942859D01*
X264014682Y-39938231D01*
X264003616Y-39933322D01*
X263992746Y-39928133D01*
X263982069Y-39922663D01*
X263971588Y-39916913D01*
X263961301Y-39910882D01*
X263951209Y-39904571D01*
X263941311Y-39897979D01*
X263931609Y-39891107D01*
X263922100Y-39883954D01*
X263912787Y-39876521D01*
X263903668Y-39868808D01*
X263894743Y-39860813D01*
X263886013Y-39852539D01*
X263877478Y-39843983D01*
X263869138Y-39835148D01*
X263861023Y-39826074D01*
X263853166Y-39816804D01*
X263845567Y-39807338D01*
X263838226Y-39797676D01*
X263831142Y-39787817D01*
X263824315Y-39777763D01*
X263817746Y-39767513D01*
X263811435Y-39757066D01*
X263805382Y-39746424D01*
X263799586Y-39735585D01*
X263794047Y-39724551D01*
X263788767Y-39713320D01*
X263783743Y-39701894D01*
X263778978Y-39690271D01*
X263774470Y-39678452D01*
X263770219Y-39666437D01*
X263766227Y-39654226D01*
X263762491Y-39641819D01*
X263759014Y-39629216D01*
X263755794Y-39616417D01*
X263752831Y-39603422D01*
X263750127Y-39590230D01*
X263747679Y-39576843D01*
X263745490Y-39563260D01*
X263743558Y-39549480D01*
X263741883Y-39535505D01*
X263740467Y-39521333D01*
X263739307Y-39506966D01*
X263738406Y-39492402D01*
X263737762Y-39477642D01*
X263737375Y-39462686D01*
X263737247Y-39447534D01*
X264002494Y-39447534D01*
X264002567Y-39459345D01*
X264002784Y-39470902D01*
X264003147Y-39482204D01*
X264003654Y-39493254D01*
X264004307Y-39504049D01*
X264005105Y-39514591D01*
X264006047Y-39524878D01*
X264007135Y-39534912D01*
X264008368Y-39544692D01*
X264010488Y-39558887D01*
X264012936Y-39572510D01*
X264015709Y-39585563D01*
X264018809Y-39598044D01*
X264021057Y-39606048D01*
X264024657Y-39617639D01*
X264028498Y-39628874D01*
X264032580Y-39639753D01*
X264036902Y-39650275D01*
X264041464Y-39660441D01*
X264046267Y-39670250D01*
X264051310Y-39679704D01*
X264056594Y-39688801D01*
X264062118Y-39697541D01*
X264067883Y-39705925D01*
X264071859Y-39711317D01*
X264078119Y-39719162D01*
X264084533Y-39726578D01*
X264093326Y-39735798D01*
X264102393Y-39744255D01*
X264111736Y-39751949D01*
X264121353Y-39758879D01*
X264131245Y-39765046D01*
X264141411Y-39770450D01*
X264146598Y-39772866D01*
X264157142Y-39777159D01*
X264167770Y-39780880D01*
X264178483Y-39784029D01*
X264189279Y-39786605D01*
X264200159Y-39788608D01*
X264211123Y-39790039D01*
X264222172Y-39790898D01*
X264233304Y-39791184D01*
X264244615Y-39790875D01*
X264255835Y-39789948D01*
X264266963Y-39788402D01*
X264278000Y-39786238D01*
X264288945Y-39783456D01*
X264299799Y-39780056D01*
X264310561Y-39776037D01*
X264321231Y-39771400D01*
X264331676Y-39766111D01*
X264341763Y-39760135D01*
X264351491Y-39753471D01*
X264360860Y-39746121D01*
X264369870Y-39738084D01*
X264378521Y-39729360D01*
X264386814Y-39719949D01*
X264394748Y-39709851D01*
X264400798Y-39701248D01*
X264406581Y-39692383D01*
X264412098Y-39683256D01*
X264417348Y-39673867D01*
X264422333Y-39664217D01*
X264427051Y-39654304D01*
X264431503Y-39644130D01*
X264435689Y-39633693D01*
X264439609Y-39622995D01*
X264443263Y-39612035D01*
X264445551Y-39604583D01*
X264448737Y-39592947D01*
X264451610Y-39580663D01*
X264454170Y-39567731D01*
X264456416Y-39554150D01*
X264458348Y-39539921D01*
X264459463Y-39530075D01*
X264460438Y-39519941D01*
X264461274Y-39509519D01*
X264461970Y-39498808D01*
X264462527Y-39487810D01*
X264462945Y-39476523D01*
X264463224Y-39464948D01*
X264463363Y-39453085D01*
X264463381Y-39447046D01*
X264463306Y-39435583D01*
X264463083Y-39424335D01*
X264462711Y-39413303D01*
X264462190Y-39402487D01*
X264461520Y-39391886D01*
X264460701Y-39381501D01*
X264459734Y-39371332D01*
X264458618Y-39361378D01*
X264457353Y-39351639D01*
X264455176Y-39337436D01*
X264452664Y-39323719D01*
X264449818Y-39310486D01*
X264446637Y-39297738D01*
X264444330Y-39289509D01*
X264440692Y-39277490D01*
X264436831Y-39265887D01*
X264432746Y-39254701D01*
X264428439Y-39243931D01*
X264423908Y-39233578D01*
X264419153Y-39223641D01*
X264414176Y-39214121D01*
X264408975Y-39205017D01*
X264403552Y-39196329D01*
X264397904Y-39188058D01*
X264394016Y-39182775D01*
X264387758Y-39175019D01*
X264379181Y-39165339D01*
X264370337Y-39156415D01*
X264361225Y-39148246D01*
X264351847Y-39140833D01*
X264342201Y-39134175D01*
X264332288Y-39128273D01*
X264322108Y-39123127D01*
X264319521Y-39121959D01*
X264309092Y-39117608D01*
X264298562Y-39113838D01*
X264287934Y-39110647D01*
X264277206Y-39108037D01*
X264266380Y-39106007D01*
X264255454Y-39104556D01*
X264244428Y-39103686D01*
X264233304Y-39103396D01*
X264221595Y-39103663D01*
X264210162Y-39104465D01*
X264199003Y-39105800D01*
X264188119Y-39107670D01*
X264177510Y-39110075D01*
X264167175Y-39113013D01*
X264157115Y-39116486D01*
X264147330Y-39120493D01*
X264137786Y-39125183D01*
X264128325Y-39130706D01*
X264118948Y-39137060D01*
X264109656Y-39144246D01*
X264100447Y-39152264D01*
X264091322Y-39161114D01*
X264084534Y-39168297D01*
X264077793Y-39175949D01*
X264073325Y-39181310D01*
X264065578Y-39191801D01*
X264060018Y-39200215D01*
X264054673Y-39209097D01*
X264049542Y-39218447D01*
X264044626Y-39228265D01*
X264039925Y-39238551D01*
X264035438Y-39249306D01*
X264031167Y-39260528D01*
X264027109Y-39272218D01*
X264023267Y-39284376D01*
X264022034Y-39288532D01*
X264018542Y-39301260D01*
X264015393Y-39314438D01*
X264012588Y-39328067D01*
X264010127Y-39342147D01*
X264008009Y-39356678D01*
X264006788Y-39366616D01*
X264005719Y-39376754D01*
X264004803Y-39387092D01*
X264004040Y-39397631D01*
X264003429Y-39408370D01*
X264002971Y-39419309D01*
X264002666Y-39430449D01*
X264002513Y-39441789D01*
X264002494Y-39447534D01*
X263737247Y-39447534D01*
X263737375Y-39432263D01*
X263737762Y-39417193D01*
X263738406Y-39402324D01*
X263739307Y-39387657D01*
X263740467Y-39373191D01*
X263741883Y-39358926D01*
X263743558Y-39344862D01*
X263745490Y-39331000D01*
X263747679Y-39317339D01*
X263750127Y-39303880D01*
X263752831Y-39290621D01*
X263755794Y-39277564D01*
X263759014Y-39264709D01*
X263762491Y-39252054D01*
X263766227Y-39239601D01*
X263770219Y-39227349D01*
X263774470Y-39215299D01*
X263778978Y-39203450D01*
X263783743Y-39191802D01*
X263788767Y-39180356D01*
X263794047Y-39169110D01*
X263799586Y-39158067D01*
X263805382Y-39147224D01*
X263811435Y-39136583D01*
X263817746Y-39126143D01*
X263824315Y-39115904D01*
X263831142Y-39105867D01*
X263838226Y-39096031D01*
X263845567Y-39086396D01*
X263853166Y-39076963D01*
X263861023Y-39067731D01*
X263869138Y-39058700D01*
X263877478Y-39049909D01*
X263886013Y-39041398D01*
X263894743Y-39033165D01*
X263903668Y-39025212D01*
X263912787Y-39017537D01*
X263922100Y-39010142D01*
X263931609Y-39003026D01*
X263941311Y-38996189D01*
X263951209Y-38989631D01*
X263961301Y-38983352D01*
X263971588Y-38977352D01*
X263982069Y-38971631D01*
X263992746Y-38966189D01*
X264003616Y-38961026D01*
X264014682Y-38956143D01*
X264025942Y-38951538D01*
X264037396Y-38947213D01*
X264049045Y-38943166D01*
X264060889Y-38939399D01*
X264072928Y-38935911D01*
X264085161Y-38932701D01*
X264097589Y-38929771D01*
X264110211Y-38927120D01*
X264123028Y-38924748D01*
X264136040Y-38922655D01*
X264149246Y-38920841D01*
X264162647Y-38919306D01*
X264176243Y-38918050D01*
X264190033Y-38917074D01*
X264204018Y-38916376D01*
X264218197Y-38915957D01*
X264232571Y-38915818D01*
X264246901Y-38915957D01*
G37*
G36*
X265738084Y-39947500D02*
G01*
X265481385Y-39947500D01*
X265481385Y-39494185D01*
X265131629Y-39494185D01*
X265131629Y-39947500D01*
X264874685Y-39947500D01*
X264874685Y-38931449D01*
X265131629Y-38931449D01*
X265131629Y-39306606D01*
X265481385Y-39306606D01*
X265481385Y-38931449D01*
X265738084Y-38931449D01*
X265738084Y-39947500D01*
G37*
G36*
X266821057Y-39947500D02*
G01*
X266573639Y-39947500D01*
X266179431Y-39239195D01*
X266179431Y-39947500D01*
X265944469Y-39947500D01*
X265944469Y-38931449D01*
X266259787Y-38931449D01*
X266586095Y-39513480D01*
X266586095Y-38931449D01*
X266821057Y-38931449D01*
X266821057Y-39947500D01*
G37*
G36*
X260205983Y-41267974D02*
G01*
X259750471Y-41267974D01*
X259750471Y-41080396D01*
X260205983Y-41080396D01*
X260205983Y-41267974D01*
G37*
G36*
X261656297Y-41627500D02*
G01*
X261399598Y-41627500D01*
X261399598Y-41174185D01*
X261049842Y-41174185D01*
X261049842Y-41627500D01*
X260792899Y-41627500D01*
X260792899Y-40611449D01*
X261049842Y-40611449D01*
X261049842Y-40986606D01*
X261399598Y-40986606D01*
X261399598Y-40611449D01*
X261656297Y-40611449D01*
X261656297Y-41627500D01*
G37*
G36*
X262215863Y-40830384D02*
G01*
X262226688Y-40830662D01*
X262237340Y-40831126D01*
X262247819Y-40831775D01*
X262258127Y-40832610D01*
X262268262Y-40833631D01*
X262278225Y-40834837D01*
X262288016Y-40836229D01*
X262307082Y-40839569D01*
X262325458Y-40843652D01*
X262343146Y-40848476D01*
X262360144Y-40854043D01*
X262376454Y-40860353D01*
X262392075Y-40867404D01*
X262407007Y-40875198D01*
X262421251Y-40883734D01*
X262434805Y-40893013D01*
X262447671Y-40903033D01*
X262459848Y-40913796D01*
X262471336Y-40925301D01*
X262482161Y-40937498D01*
X262492287Y-40950336D01*
X262501715Y-40963815D01*
X262510445Y-40977936D01*
X262518477Y-40992697D01*
X262525810Y-41008100D01*
X262532444Y-41024143D01*
X262538381Y-41040828D01*
X262543618Y-41058154D01*
X262548158Y-41076121D01*
X262551999Y-41094730D01*
X262555142Y-41113979D01*
X262556451Y-41123844D01*
X262557586Y-41133869D01*
X262558546Y-41144055D01*
X262559332Y-41154401D01*
X262559943Y-41164907D01*
X262560380Y-41175574D01*
X262560641Y-41186401D01*
X262560729Y-41197388D01*
X262560729Y-41283606D01*
X262033653Y-41283606D01*
X262034433Y-41293528D01*
X262035908Y-41306284D01*
X262037879Y-41318498D01*
X262040347Y-41330170D01*
X262043310Y-41341301D01*
X262046770Y-41351889D01*
X262050725Y-41361935D01*
X262055177Y-41371440D01*
X262056367Y-41373731D01*
X262061382Y-41382535D01*
X262066778Y-41390874D01*
X262074060Y-41400642D01*
X262081938Y-41409684D01*
X262090413Y-41417997D01*
X262099484Y-41425583D01*
X262107170Y-41431128D01*
X262117108Y-41437547D01*
X262127534Y-41443369D01*
X262138450Y-41448595D01*
X262147535Y-41452346D01*
X262156933Y-41455716D01*
X262166643Y-41458704D01*
X262176667Y-41461311D01*
X262179221Y-41461903D01*
X262189659Y-41464078D01*
X262200333Y-41465963D01*
X262211244Y-41467559D01*
X262222391Y-41468864D01*
X262233775Y-41469879D01*
X262245396Y-41470604D01*
X262257253Y-41471039D01*
X262269347Y-41471184D01*
X262279769Y-41471031D01*
X262290153Y-41470573D01*
X262300499Y-41469810D01*
X262310807Y-41468742D01*
X262321077Y-41467368D01*
X262331308Y-41465689D01*
X262341502Y-41463704D01*
X262351657Y-41461414D01*
X262361686Y-41458873D01*
X262371502Y-41456133D01*
X262381103Y-41453194D01*
X262390491Y-41450057D01*
X262401926Y-41445857D01*
X262413027Y-41441346D01*
X262423793Y-41436526D01*
X262425907Y-41435525D01*
X262435029Y-41431197D01*
X262443924Y-41426761D01*
X262452593Y-41422219D01*
X262462697Y-41416626D01*
X262472474Y-41410879D01*
X262480373Y-41405971D01*
X262489480Y-41400055D01*
X262497935Y-41394396D01*
X262506975Y-41388120D01*
X262515126Y-41382195D01*
X262521406Y-41377395D01*
X262546807Y-41377395D01*
X262546807Y-41578407D01*
X262537697Y-41582099D01*
X262527095Y-41586404D01*
X262516854Y-41590571D01*
X262506974Y-41594601D01*
X262497454Y-41598494D01*
X262492829Y-41600389D01*
X262483035Y-41604161D01*
X262471969Y-41607968D01*
X262461777Y-41611166D01*
X262450703Y-41614389D01*
X262441208Y-41616984D01*
X262431148Y-41619594D01*
X262425907Y-41620905D01*
X262416095Y-41623458D01*
X262406199Y-41625866D01*
X262396220Y-41628129D01*
X262386156Y-41630247D01*
X262376009Y-41632220D01*
X262365777Y-41634048D01*
X262355462Y-41635731D01*
X262345062Y-41637269D01*
X262334400Y-41638643D01*
X262323172Y-41639834D01*
X262311380Y-41640841D01*
X262299023Y-41641666D01*
X262286101Y-41642307D01*
X262276038Y-41642667D01*
X262265659Y-41642925D01*
X262254961Y-41643080D01*
X262243946Y-41643131D01*
X262230383Y-41643029D01*
X262217020Y-41642725D01*
X262203856Y-41642217D01*
X262190892Y-41641505D01*
X262178127Y-41640591D01*
X262165561Y-41639473D01*
X262153195Y-41638152D01*
X262141028Y-41636628D01*
X262129061Y-41634901D01*
X262117292Y-41632970D01*
X262105724Y-41630836D01*
X262094355Y-41628499D01*
X262083185Y-41625959D01*
X262072214Y-41623216D01*
X262061443Y-41620269D01*
X262050872Y-41617119D01*
X262040500Y-41613766D01*
X262030327Y-41610210D01*
X262020353Y-41606450D01*
X262010579Y-41602488D01*
X262001005Y-41598322D01*
X261991630Y-41593952D01*
X261982454Y-41589380D01*
X261973477Y-41584604D01*
X261964700Y-41579626D01*
X261956123Y-41574443D01*
X261947745Y-41569058D01*
X261939566Y-41563470D01*
X261931586Y-41557678D01*
X261923806Y-41551683D01*
X261916226Y-41545485D01*
X261908845Y-41539084D01*
X261894766Y-41525733D01*
X261881596Y-41511694D01*
X261869334Y-41496966D01*
X261857981Y-41481549D01*
X261847536Y-41465443D01*
X261837999Y-41448649D01*
X261829370Y-41431165D01*
X261825397Y-41422165D01*
X261821650Y-41412993D01*
X261818130Y-41403649D01*
X261814838Y-41394132D01*
X261811772Y-41384443D01*
X261808934Y-41374582D01*
X261806323Y-41364549D01*
X261803938Y-41354343D01*
X261801781Y-41343966D01*
X261799851Y-41333416D01*
X261798148Y-41322694D01*
X261796672Y-41311799D01*
X261795423Y-41300733D01*
X261794402Y-41289494D01*
X261793607Y-41278083D01*
X261793039Y-41266500D01*
X261792699Y-41254745D01*
X261792585Y-41242817D01*
X261792691Y-41231137D01*
X261793009Y-41219605D01*
X261793538Y-41208222D01*
X261794279Y-41196987D01*
X261795233Y-41185901D01*
X261796397Y-41174962D01*
X261797774Y-41164172D01*
X261799363Y-41153531D01*
X261801163Y-41143038D01*
X261801186Y-41142922D01*
X262033164Y-41142922D01*
X262323569Y-41142922D01*
X262322926Y-41128910D01*
X262321729Y-41115542D01*
X262319978Y-41102818D01*
X262317673Y-41090738D01*
X262314814Y-41079302D01*
X262311402Y-41068510D01*
X262307435Y-41058362D01*
X262302915Y-41048858D01*
X262297841Y-41039998D01*
X262292213Y-41031782D01*
X262288154Y-41026662D01*
X262279296Y-41017274D01*
X262269332Y-41009138D01*
X262258261Y-41002253D01*
X262249231Y-40997911D01*
X262239579Y-40994273D01*
X262229304Y-40991339D01*
X262218407Y-40989110D01*
X262206887Y-40987584D01*
X262194745Y-40986763D01*
X262186304Y-40986606D01*
X262173429Y-40986975D01*
X262161091Y-40988083D01*
X262149289Y-40989929D01*
X262138025Y-40992514D01*
X262127296Y-40995837D01*
X262117105Y-40999898D01*
X262107450Y-41004698D01*
X262098331Y-41010237D01*
X262089750Y-41016514D01*
X262081705Y-41023529D01*
X262076639Y-41028616D01*
X262069575Y-41036759D01*
X262063130Y-41045434D01*
X262057302Y-41054642D01*
X262052093Y-41064382D01*
X262047502Y-41074655D01*
X262043529Y-41085460D01*
X262040175Y-41096797D01*
X262037438Y-41108667D01*
X262035320Y-41121069D01*
X262033821Y-41134003D01*
X262033164Y-41142922D01*
X261801186Y-41142922D01*
X261803175Y-41132693D01*
X261805399Y-41122497D01*
X261807835Y-41112449D01*
X261810482Y-41102549D01*
X261813342Y-41092798D01*
X261816413Y-41083195D01*
X261819696Y-41073740D01*
X261823191Y-41064434D01*
X261826897Y-41055276D01*
X261830816Y-41046266D01*
X261834946Y-41037405D01*
X261843842Y-41020128D01*
X261853585Y-41003444D01*
X261864175Y-40987353D01*
X261875612Y-40971856D01*
X261887897Y-40956953D01*
X261901029Y-40942643D01*
X261914953Y-40929037D01*
X261929552Y-40916310D01*
X261944827Y-40904461D01*
X261960777Y-40893489D01*
X261977402Y-40883395D01*
X261985969Y-40878677D01*
X261994704Y-40874178D01*
X262003607Y-40869899D01*
X262012680Y-40865840D01*
X262021922Y-40861999D01*
X262031332Y-40858379D01*
X262040912Y-40854978D01*
X262050660Y-40851796D01*
X262060577Y-40848833D01*
X262070663Y-40846090D01*
X262080918Y-40843567D01*
X262091342Y-40841263D01*
X262101934Y-40839178D01*
X262112696Y-40837313D01*
X262123626Y-40835667D01*
X262134725Y-40834241D01*
X262145993Y-40833034D01*
X262157430Y-40832046D01*
X262169036Y-40831278D01*
X262180811Y-40830730D01*
X262192754Y-40830401D01*
X262204867Y-40830291D01*
X262215863Y-40830384D01*
G37*
G36*
X262919766Y-41627500D02*
G01*
X262679431Y-41627500D01*
X262679431Y-40564555D01*
X262919766Y-40564555D01*
X262919766Y-41627500D01*
G37*
G36*
X264023255Y-41627500D02*
G01*
X264023255Y-41241352D01*
X264023236Y-41230794D01*
X264023178Y-41220555D01*
X264023081Y-41210633D01*
X264022892Y-41197898D01*
X264022635Y-41185728D01*
X264022308Y-41174122D01*
X264021913Y-41163082D01*
X264021450Y-41152606D01*
X264021057Y-41145120D01*
X264020243Y-41133183D01*
X264019025Y-41121950D01*
X264017400Y-41111421D01*
X264015370Y-41101595D01*
X264012399Y-41090733D01*
X264008845Y-41080884D01*
X264003807Y-41070734D01*
X263997671Y-41061870D01*
X263990437Y-41054292D01*
X263982104Y-41047999D01*
X263976849Y-41044980D01*
X263966592Y-41040507D01*
X263956443Y-41037548D01*
X263945040Y-41035395D01*
X263934579Y-41034218D01*
X263923249Y-41033602D01*
X263916032Y-41033501D01*
X263905791Y-41033930D01*
X263895585Y-41035218D01*
X263885412Y-41037365D01*
X263875274Y-41040370D01*
X263865171Y-41044234D01*
X263861810Y-41045713D01*
X263851572Y-41050553D01*
X263842791Y-41055124D01*
X263833784Y-41060184D01*
X263824549Y-41065734D01*
X263815088Y-41071772D01*
X263805401Y-41078299D01*
X263803436Y-41079663D01*
X263803436Y-41627500D01*
X263561636Y-41627500D01*
X263561636Y-41241352D01*
X263561614Y-41230921D01*
X263561550Y-41220787D01*
X263561443Y-41210948D01*
X263561233Y-41198292D01*
X263560947Y-41186162D01*
X263560584Y-41174558D01*
X263560145Y-41163481D01*
X263559630Y-41152931D01*
X263559193Y-41145364D01*
X263558239Y-41133357D01*
X263556904Y-41122066D01*
X263555186Y-41111490D01*
X263553087Y-41101629D01*
X263550065Y-41090741D01*
X263546493Y-41080884D01*
X263541456Y-41070734D01*
X263535320Y-41061870D01*
X263528085Y-41054292D01*
X263519752Y-41047999D01*
X263514497Y-41044980D01*
X263504276Y-41040507D01*
X263494212Y-41037548D01*
X263482946Y-41035395D01*
X263472640Y-41034218D01*
X263461499Y-41033602D01*
X263454413Y-41033501D01*
X263443382Y-41033990D01*
X263432454Y-41035459D01*
X263421629Y-41037906D01*
X263410908Y-41041332D01*
X263400289Y-41045737D01*
X263396772Y-41047423D01*
X263388024Y-41051816D01*
X263379336Y-41056448D01*
X263370708Y-41061319D01*
X263362139Y-41066428D01*
X263353630Y-41071775D01*
X263345180Y-41077362D01*
X263341817Y-41079663D01*
X263341817Y-41627500D01*
X263101482Y-41627500D01*
X263101482Y-40861554D01*
X263341817Y-40861554D01*
X263341817Y-40937269D01*
X263352840Y-40928029D01*
X263363742Y-40919174D01*
X263374524Y-40910706D01*
X263385186Y-40902625D01*
X263395727Y-40894930D01*
X263406149Y-40887621D01*
X263416450Y-40880699D01*
X263426631Y-40874163D01*
X263436691Y-40868013D01*
X263446632Y-40862250D01*
X263453192Y-40858623D01*
X263463106Y-40853560D01*
X263473248Y-40848995D01*
X263483617Y-40844927D01*
X263494213Y-40841358D01*
X263505038Y-40838287D01*
X263516089Y-40835714D01*
X263527369Y-40833639D01*
X263538876Y-40832062D01*
X263550610Y-40830983D01*
X263562572Y-40830402D01*
X263570673Y-40830291D01*
X263583801Y-40830589D01*
X263596625Y-40831484D01*
X263609143Y-40832976D01*
X263621357Y-40835065D01*
X263633266Y-40837751D01*
X263644870Y-40841033D01*
X263656170Y-40844912D01*
X263667164Y-40849388D01*
X263677854Y-40854460D01*
X263688239Y-40860129D01*
X263694993Y-40864241D01*
X263704842Y-40870854D01*
X263714241Y-40878057D01*
X263723189Y-40885847D01*
X263731686Y-40894225D01*
X263739733Y-40903192D01*
X263747328Y-40912747D01*
X263754473Y-40922890D01*
X263761167Y-40933621D01*
X263767410Y-40944940D01*
X263773203Y-40956848D01*
X263776814Y-40965113D01*
X263785453Y-40957109D01*
X263794029Y-40949340D01*
X263802542Y-40941806D01*
X263810993Y-40934506D01*
X263819380Y-40927441D01*
X263827704Y-40920611D01*
X263835965Y-40914016D01*
X263844164Y-40907655D01*
X263852299Y-40901529D01*
X263860372Y-40895637D01*
X263868381Y-40889981D01*
X263880277Y-40881936D01*
X263892032Y-40874419D01*
X263903644Y-40867430D01*
X263907484Y-40865218D01*
X263919039Y-40858976D01*
X263930625Y-40853348D01*
X263942240Y-40848334D01*
X263953886Y-40843934D01*
X263965562Y-40840148D01*
X263977268Y-40836976D01*
X263989003Y-40834418D01*
X264000769Y-40832474D01*
X264012565Y-40831144D01*
X264024391Y-40830427D01*
X264032292Y-40830291D01*
X264042225Y-40830443D01*
X264055167Y-40831121D01*
X264067767Y-40832340D01*
X264080023Y-40834101D01*
X264091936Y-40836404D01*
X264103505Y-40839249D01*
X264114730Y-40842636D01*
X264125612Y-40846565D01*
X264128279Y-40847632D01*
X264138759Y-40852181D01*
X264148826Y-40857280D01*
X264158481Y-40862928D01*
X264167725Y-40869125D01*
X264176555Y-40875873D01*
X264184974Y-40883169D01*
X264192981Y-40891016D01*
X264200575Y-40899412D01*
X264208383Y-40908975D01*
X264215688Y-40918982D01*
X264222488Y-40929431D01*
X264228785Y-40940322D01*
X264234578Y-40951657D01*
X264239868Y-40963434D01*
X264243504Y-40972557D01*
X264246857Y-40981929D01*
X264248935Y-40988316D01*
X264251816Y-40998210D01*
X264254414Y-41008658D01*
X264256728Y-41019659D01*
X264258758Y-41031215D01*
X264260506Y-41043324D01*
X264261970Y-41055987D01*
X264263151Y-41069204D01*
X264264048Y-41082975D01*
X264264662Y-41097300D01*
X264264914Y-41107158D01*
X264265040Y-41117261D01*
X264265055Y-41122405D01*
X264265055Y-41627500D01*
X264023255Y-41627500D01*
G37*
G36*
X265152390Y-41627500D02*
G01*
X264912055Y-41627500D01*
X264912055Y-41551784D01*
X264904279Y-41558249D01*
X264896583Y-41564515D01*
X264885190Y-41573543D01*
X264873978Y-41582124D01*
X264862945Y-41590258D01*
X264852093Y-41597946D01*
X264841421Y-41605188D01*
X264830930Y-41611982D01*
X264820619Y-41618331D01*
X264810488Y-41624233D01*
X264800537Y-41629688D01*
X264797260Y-41631407D01*
X264787328Y-41636296D01*
X264777039Y-41640704D01*
X264766394Y-41644631D01*
X264755392Y-41648077D01*
X264744034Y-41651042D01*
X264732320Y-41653527D01*
X264720249Y-41655530D01*
X264707822Y-41657053D01*
X264695038Y-41658095D01*
X264681899Y-41658656D01*
X264672941Y-41658763D01*
X264658819Y-41658478D01*
X264645090Y-41657625D01*
X264631754Y-41656204D01*
X264618811Y-41654214D01*
X264606261Y-41651655D01*
X264594104Y-41648527D01*
X264582340Y-41644831D01*
X264570969Y-41640566D01*
X264559992Y-41635733D01*
X264549407Y-41630331D01*
X264539216Y-41624361D01*
X264529418Y-41617821D01*
X264520012Y-41610714D01*
X264511000Y-41603037D01*
X264502381Y-41594792D01*
X264494155Y-41585978D01*
X264486377Y-41576563D01*
X264479100Y-41566576D01*
X264472325Y-41556016D01*
X264466052Y-41544884D01*
X264460281Y-41533180D01*
X264455011Y-41520903D01*
X264450244Y-41508053D01*
X264445978Y-41494631D01*
X264442214Y-41480637D01*
X264438952Y-41466070D01*
X264436192Y-41450931D01*
X264433934Y-41435219D01*
X264432178Y-41418935D01*
X264430923Y-41402079D01*
X264430170Y-41384650D01*
X264429919Y-41366648D01*
X264429919Y-40861554D01*
X264671720Y-40861554D01*
X264671720Y-41245015D01*
X264671745Y-41256042D01*
X264671823Y-41266682D01*
X264671952Y-41276936D01*
X264672132Y-41286804D01*
X264672452Y-41299359D01*
X264672865Y-41311228D01*
X264673368Y-41322410D01*
X264673964Y-41332904D01*
X264674651Y-41342712D01*
X264675852Y-41354257D01*
X264677470Y-41365228D01*
X264679506Y-41375628D01*
X264681959Y-41385455D01*
X264685454Y-41396492D01*
X264689549Y-41406704D01*
X264694092Y-41415359D01*
X264700455Y-41424415D01*
X264707963Y-41432349D01*
X264716617Y-41439162D01*
X264723499Y-41443340D01*
X264732753Y-41447491D01*
X264743294Y-41450782D01*
X264753063Y-41452869D01*
X264763726Y-41454360D01*
X264775283Y-41455254D01*
X264785173Y-41455541D01*
X264787735Y-41455553D01*
X264797587Y-41455123D01*
X264808091Y-41453835D01*
X264819248Y-41451689D01*
X264829044Y-41449244D01*
X264839293Y-41446203D01*
X264847819Y-41443340D01*
X264858532Y-41439227D01*
X264868994Y-41434673D01*
X264879207Y-41429677D01*
X264889168Y-41424240D01*
X264898880Y-41418362D01*
X264908340Y-41412042D01*
X264912055Y-41409391D01*
X264912055Y-40861554D01*
X265152390Y-40861554D01*
X265152390Y-41627500D01*
G37*
G36*
X265627198Y-41643131D02*
G01*
X265609131Y-41642898D01*
X265591691Y-41642200D01*
X265574876Y-41641036D01*
X265558688Y-41639406D01*
X265543125Y-41637311D01*
X265528188Y-41634750D01*
X265513877Y-41631724D01*
X265500191Y-41628232D01*
X265487132Y-41624275D01*
X265474699Y-41619852D01*
X265462891Y-41614963D01*
X265451709Y-41609609D01*
X265441153Y-41603789D01*
X265431223Y-41597503D01*
X265421919Y-41590752D01*
X265413241Y-41583536D01*
X265405137Y-41575791D01*
X265397556Y-41567454D01*
X265390498Y-41558526D01*
X265383962Y-41549006D01*
X265377950Y-41538895D01*
X265372460Y-41528192D01*
X265367493Y-41516898D01*
X265363049Y-41505012D01*
X265359128Y-41492534D01*
X265355729Y-41479465D01*
X265352854Y-41465805D01*
X265350501Y-41451553D01*
X265348671Y-41436710D01*
X265347364Y-41421275D01*
X265346580Y-41405248D01*
X265346318Y-41388630D01*
X265346318Y-41033501D01*
X265254239Y-41033501D01*
X265254239Y-40861554D01*
X265346318Y-40861554D01*
X265346318Y-40642712D01*
X265586653Y-40642712D01*
X265586653Y-40861554D01*
X265818196Y-40861554D01*
X265818196Y-41033501D01*
X265586653Y-41033501D01*
X265586653Y-41298993D01*
X265586671Y-41311043D01*
X265586725Y-41322616D01*
X265586814Y-41333712D01*
X265586940Y-41344330D01*
X265587101Y-41354472D01*
X265587341Y-41366013D01*
X265587386Y-41367869D01*
X265587996Y-41378646D01*
X265589275Y-41388993D01*
X265591224Y-41398910D01*
X265593843Y-41408398D01*
X265597745Y-41418925D01*
X265598377Y-41420382D01*
X265603257Y-41430172D01*
X265609564Y-41439028D01*
X265617296Y-41446949D01*
X265625058Y-41452994D01*
X265632327Y-41457506D01*
X265642267Y-41462155D01*
X265651745Y-41465294D01*
X265662308Y-41467765D01*
X265673956Y-41469568D01*
X265684055Y-41470530D01*
X265694850Y-41471064D01*
X265703401Y-41471184D01*
X265713797Y-41470497D01*
X265724120Y-41468769D01*
X265733881Y-41466451D01*
X265744482Y-41463359D01*
X265753960Y-41460193D01*
X265763270Y-41456800D01*
X265773231Y-41452839D01*
X265783180Y-41448369D01*
X265792347Y-41443462D01*
X265797679Y-41439921D01*
X265818196Y-41439921D01*
X265818196Y-41619928D01*
X265808350Y-41622542D01*
X265798351Y-41625011D01*
X265788200Y-41627335D01*
X265777896Y-41629515D01*
X265767439Y-41631549D01*
X265756830Y-41633438D01*
X265746068Y-41635182D01*
X265735153Y-41636781D01*
X265723849Y-41638269D01*
X265711919Y-41639559D01*
X265699364Y-41640650D01*
X265689536Y-41641339D01*
X265679357Y-41641916D01*
X265668825Y-41642381D01*
X265657942Y-41642734D01*
X265646706Y-41642976D01*
X265635118Y-41643106D01*
X265627198Y-41643131D01*
G37*
%LPC*%
D11*
%TO.C,S2*%
X0Y-65405000D03*
X23812500Y-65405000D03*
%TD*%
%TO.C,S1*%
X171450000Y-67945000D03*
X71437500Y-67945000D03*
%TD*%
%TO.C,S7*%
X256063750Y-16668750D03*
X256063750Y-40481250D03*
%TD*%
%TO.C,S3*%
X238125000Y-65405000D03*
X261937500Y-65405000D03*
%TD*%
%TO.C,S4*%
X242887500Y-46355000D03*
X266700000Y-46355000D03*
%TD*%
%TO.C,S5*%
X245268750Y-8255000D03*
X269081250Y-8255000D03*
%TD*%
%TO.C,S6*%
X190500000Y-67945000D03*
X76200000Y-67945000D03*
%TD*%
D12*
%TO.C,SW36*%
X152717500Y-38100000D03*
D11*
X147637500Y-38100000D03*
D12*
X142557500Y-38100000D03*
D13*
X143827500Y-35560000D03*
X150177500Y-33020000D03*
%TD*%
D12*
%TO.C,SW65*%
X128270000Y-76200000D03*
D11*
X133350000Y-76200000D03*
D12*
X138430000Y-76200000D03*
D13*
X137160000Y-78740000D03*
X130810000Y-81280000D03*
%TD*%
D12*
%TO.C,SW8*%
X128270000Y0D03*
D11*
X133350000Y0D03*
D12*
X138430000Y0D03*
D13*
X137160000Y-2540000D03*
X130810000Y-5080000D03*
%TD*%
D12*
%TO.C,SW74*%
X235426250Y-57150000D03*
D11*
X240506250Y-57150000D03*
D12*
X245586250Y-57150000D03*
D13*
X244316250Y-59690000D03*
X237966250Y-62230000D03*
%TD*%
D12*
%TO.C,SW46*%
X105092500Y-57150000D03*
D11*
X100012500Y-57150000D03*
D12*
X94932500Y-57150000D03*
D13*
X96202500Y-54610000D03*
X102552500Y-52070000D03*
%TD*%
D12*
%TO.C,SW42*%
X16986250Y-57150000D03*
D11*
X11906250Y-57150000D03*
D12*
X6826250Y-57150000D03*
D13*
X8096250Y-54610000D03*
X14446250Y-52070000D03*
%TD*%
D12*
%TO.C,SW6*%
X90170000Y0D03*
D11*
X95250000Y0D03*
D12*
X100330000Y0D03*
D13*
X99060000Y-2540000D03*
X92710000Y-5080000D03*
%TD*%
D14*
%TO.C,J1*%
X6103125Y1496875D03*
X6953125Y1496875D03*
X7803125Y1496875D03*
X8653125Y1496875D03*
X9503125Y1496875D03*
X10353125Y1496875D03*
X11203125Y1496875D03*
X12053125Y1496875D03*
X12053125Y2846875D03*
X11203125Y2846875D03*
X10353125Y2846875D03*
X9503125Y2846875D03*
X8653125Y2846875D03*
X7803125Y2846875D03*
X6953125Y2846875D03*
X6103125Y2846875D03*
D15*
X4753125Y5856875D03*
D16*
X4753125Y2476875D03*
D15*
X13403125Y5856875D03*
D16*
X13403125Y2476875D03*
%TD*%
D12*
%TO.C,SW51*%
X200342500Y-57150000D03*
D11*
X195262500Y-57150000D03*
D12*
X190182500Y-57150000D03*
D13*
X191452500Y-54610000D03*
X197802500Y-52070000D03*
%TD*%
D12*
%TO.C,SW57*%
X126523750Y-76200000D03*
D11*
X121443750Y-76200000D03*
D12*
X116363750Y-76200000D03*
D13*
X117633750Y-73660000D03*
X123983750Y-71120000D03*
%TD*%
D12*
%TO.C,SW62*%
X9842500Y-76200000D03*
D11*
X4762500Y-76200000D03*
D12*
X-317500Y-76200000D03*
D13*
X952500Y-73660000D03*
X7302500Y-71120000D03*
%TD*%
D12*
%TO.C,SW1*%
X-5080000Y0D03*
D11*
X0Y0D03*
D12*
X5080000Y0D03*
D13*
X3810000Y-2540000D03*
X-2540000Y-5080000D03*
%TD*%
D12*
%TO.C,SW38*%
X190817500Y-38100000D03*
D11*
X185737500Y-38100000D03*
D12*
X180657500Y-38100000D03*
D13*
X181927500Y-35560000D03*
X188277500Y-33020000D03*
%TD*%
D12*
%TO.C,SW3*%
X33020000Y0D03*
D11*
X38100000Y0D03*
D12*
X43180000Y0D03*
D13*
X41910000Y-2540000D03*
X35560000Y-5080000D03*
%TD*%
D12*
%TO.C,SW30*%
X38417500Y-38100000D03*
D11*
X33337500Y-38100000D03*
D12*
X28257500Y-38100000D03*
D13*
X29527500Y-35560000D03*
X35877500Y-33020000D03*
%TD*%
D12*
%TO.C,SW20*%
X109855000Y-19050000D03*
D11*
X104775000Y-19050000D03*
D12*
X99695000Y-19050000D03*
D13*
X100965000Y-16510000D03*
X107315000Y-13970000D03*
%TD*%
D12*
%TO.C,SW37*%
X171767500Y-38100000D03*
D11*
X166687500Y-38100000D03*
D12*
X161607500Y-38100000D03*
D13*
X162877500Y-35560000D03*
X169227500Y-33020000D03*
%TD*%
D12*
%TO.C,SW79*%
X18732500Y-57150000D03*
D11*
X23812500Y-57150000D03*
D12*
X28892500Y-57150000D03*
D13*
X27622500Y-59690000D03*
X21272500Y-62230000D03*
%TD*%
D12*
%TO.C,SW27*%
X243205000Y-19050000D03*
D11*
X238125000Y-19050000D03*
D12*
X233045000Y-19050000D03*
D13*
X234315000Y-16510000D03*
X240665000Y-13970000D03*
%TD*%
D12*
%TO.C,SW35*%
X133667500Y-38100000D03*
D11*
X128587500Y-38100000D03*
D12*
X123507500Y-38100000D03*
D13*
X124777500Y-35560000D03*
X131127500Y-33020000D03*
%TD*%
D12*
%TO.C,SW69*%
X7461250Y-38100000D03*
D11*
X2381250Y-38100000D03*
D12*
X-2698750Y-38100000D03*
D13*
X-1428750Y-35560000D03*
X4921250Y-33020000D03*
%TD*%
D12*
%TO.C,SW28*%
X261937500Y-24130000D03*
D11*
X261937500Y-19050000D03*
D12*
X261937500Y-13970000D03*
D13*
X264477500Y-15240000D03*
X267017500Y-21590000D03*
%TD*%
D12*
%TO.C,SW75*%
X255111250Y-57150000D03*
D11*
X250031250Y-57150000D03*
D12*
X244951250Y-57150000D03*
D13*
X246221250Y-54610000D03*
X252571250Y-52070000D03*
%TD*%
D12*
%TO.C,SW14*%
X262255000Y0D03*
D11*
X257175000Y0D03*
D12*
X252095000Y0D03*
D13*
X253365000Y2540000D03*
X259715000Y5080000D03*
%TD*%
D12*
%TO.C,SW63*%
X23495000Y-76200000D03*
D11*
X28575000Y-76200000D03*
D12*
X33655000Y-76200000D03*
D13*
X32385000Y-78740000D03*
X26035000Y-81280000D03*
%TD*%
D12*
%TO.C,SW70*%
X242570000Y0D03*
D11*
X247650000Y0D03*
D12*
X252730000Y0D03*
D13*
X251460000Y-2540000D03*
X245110000Y-5080000D03*
%TD*%
D12*
%TO.C,SW2*%
X13970000Y0D03*
D11*
X19050000Y0D03*
D12*
X24130000Y0D03*
D13*
X22860000Y-2540000D03*
X16510000Y-5080000D03*
%TD*%
D12*
%TO.C,SW54*%
X-2698750Y-76200000D03*
D11*
X2381250Y-76200000D03*
D12*
X7461250Y-76200000D03*
D13*
X6191250Y-78740000D03*
X-158750Y-81280000D03*
%TD*%
D12*
%TO.C,SW29*%
X2063750Y-38100000D03*
D11*
X7143750Y-38100000D03*
D12*
X12223750Y-38100000D03*
D13*
X10953750Y-40640000D03*
X4603750Y-43180000D03*
%TD*%
D12*
%TO.C,SW31*%
X57467500Y-38100000D03*
D11*
X52387500Y-38100000D03*
D12*
X47307500Y-38100000D03*
D13*
X48577500Y-35560000D03*
X54927500Y-33020000D03*
%TD*%
D12*
%TO.C,SW9*%
X147320000Y0D03*
D11*
X152400000Y0D03*
D12*
X157480000Y0D03*
D13*
X156210000Y-2540000D03*
X149860000Y-5080000D03*
%TD*%
D12*
%TO.C,SW19*%
X90805000Y-19050000D03*
D11*
X85725000Y-19050000D03*
D12*
X80645000Y-19050000D03*
D13*
X81915000Y-16510000D03*
X88265000Y-13970000D03*
%TD*%
D12*
%TO.C,SW40*%
X228917500Y-38100000D03*
D11*
X223837500Y-38100000D03*
D12*
X218757500Y-38100000D03*
D13*
X220027500Y-35560000D03*
X226377500Y-33020000D03*
%TD*%
D12*
%TO.C,SW7*%
X109220000Y0D03*
D11*
X114300000Y0D03*
D12*
X119380000Y0D03*
D13*
X118110000Y-2540000D03*
X111760000Y-5080000D03*
%TD*%
D12*
%TO.C,SW58*%
X197961250Y-76200000D03*
D11*
X192881250Y-76200000D03*
D12*
X187801250Y-76200000D03*
D13*
X189071250Y-73660000D03*
X195421250Y-71120000D03*
%TD*%
D12*
%TO.C,SW71*%
X261620000Y0D03*
D11*
X266700000Y0D03*
D12*
X271780000Y0D03*
D13*
X270510000Y-2540000D03*
X264160000Y-5080000D03*
%TD*%
D12*
%TO.C,SW23*%
X167005000Y-19050000D03*
D11*
X161925000Y-19050000D03*
D12*
X156845000Y-19050000D03*
D13*
X158115000Y-16510000D03*
X164465000Y-13970000D03*
%TD*%
D12*
%TO.C,SW78*%
X-2698750Y-57150000D03*
D11*
X2381250Y-57150000D03*
D12*
X7461250Y-57150000D03*
D13*
X6191250Y-59690000D03*
X-158750Y-62230000D03*
%TD*%
D12*
%TO.C,SW16*%
X33655000Y-19050000D03*
D11*
X28575000Y-19050000D03*
D12*
X23495000Y-19050000D03*
D13*
X24765000Y-16510000D03*
X31115000Y-13970000D03*
%TD*%
D12*
%TO.C,SW52*%
X219392500Y-57150000D03*
D11*
X214312500Y-57150000D03*
D12*
X209232500Y-57150000D03*
D13*
X210502500Y-54610000D03*
X216852500Y-52070000D03*
%TD*%
D12*
%TO.C,SW55*%
X31273750Y-76200000D03*
D11*
X26193750Y-76200000D03*
D12*
X21113750Y-76200000D03*
D13*
X22383750Y-73660000D03*
X28733750Y-71120000D03*
%TD*%
D12*
%TO.C,SW43*%
X47942500Y-57150000D03*
D11*
X42862500Y-57150000D03*
D12*
X37782500Y-57150000D03*
D13*
X39052500Y-54610000D03*
X45402500Y-52070000D03*
%TD*%
D12*
%TO.C,SW25*%
X205105000Y-19050000D03*
D11*
X200025000Y-19050000D03*
D12*
X194945000Y-19050000D03*
D13*
X196215000Y-16510000D03*
X202565000Y-13970000D03*
%TD*%
D12*
%TO.C,SW53*%
X261620000Y-57150000D03*
D11*
X266700000Y-57150000D03*
D12*
X271780000Y-57150000D03*
D13*
X270510000Y-59690000D03*
X264160000Y-62230000D03*
%TD*%
D12*
%TO.C,SW45*%
X86042500Y-57150000D03*
D11*
X80962500Y-57150000D03*
D12*
X75882500Y-57150000D03*
D13*
X77152500Y-54610000D03*
X83502500Y-52070000D03*
%TD*%
D12*
%TO.C,SW11*%
X185420000Y0D03*
D11*
X190500000Y0D03*
D12*
X195580000Y0D03*
D13*
X194310000Y-2540000D03*
X187960000Y-5080000D03*
%TD*%
D12*
%TO.C,SW34*%
X114617500Y-38100000D03*
D11*
X109537500Y-38100000D03*
D12*
X104457500Y-38100000D03*
D13*
X105727500Y-35560000D03*
X112077500Y-33020000D03*
%TD*%
D12*
%TO.C,SW10*%
X166370000Y0D03*
D11*
X171450000Y0D03*
D12*
X176530000Y0D03*
D13*
X175260000Y-2540000D03*
X168910000Y-5080000D03*
%TD*%
D12*
%TO.C,SW49*%
X162242500Y-57150000D03*
D11*
X157162500Y-57150000D03*
D12*
X152082500Y-57150000D03*
D13*
X153352500Y-54610000D03*
X159702500Y-52070000D03*
%TD*%
D12*
%TO.C,SW48*%
X143192500Y-57150000D03*
D11*
X138112500Y-57150000D03*
D12*
X133032500Y-57150000D03*
D13*
X134302500Y-54610000D03*
X140652500Y-52070000D03*
%TD*%
D12*
%TO.C,SW32*%
X76517500Y-38100000D03*
D11*
X71437500Y-38100000D03*
D12*
X66357500Y-38100000D03*
D13*
X67627500Y-35560000D03*
X73977500Y-33020000D03*
%TD*%
D12*
%TO.C,SW18*%
X71755000Y-19050000D03*
D11*
X66675000Y-19050000D03*
D12*
X61595000Y-19050000D03*
D13*
X62865000Y-16510000D03*
X69215000Y-13970000D03*
%TD*%
D12*
%TO.C,SW50*%
X181292500Y-57150000D03*
D11*
X176212500Y-57150000D03*
D12*
X171132500Y-57150000D03*
D13*
X172402500Y-54610000D03*
X178752500Y-52070000D03*
%TD*%
D12*
%TO.C,SW61*%
X211613750Y-76200000D03*
D11*
X216693750Y-76200000D03*
D12*
X221773750Y-76200000D03*
D13*
X220503750Y-78740000D03*
X214153750Y-81280000D03*
%TD*%
D12*
%TO.C,SW47*%
X124142500Y-57150000D03*
D11*
X119062500Y-57150000D03*
D12*
X113982500Y-57150000D03*
D13*
X115252500Y-54610000D03*
X121602500Y-52070000D03*
%TD*%
D12*
%TO.C,SW12*%
X204470000Y0D03*
D11*
X209550000Y0D03*
D12*
X214630000Y0D03*
D13*
X213360000Y-2540000D03*
X207010000Y-5080000D03*
%TD*%
D12*
%TO.C,SW64*%
X47307500Y-76200000D03*
D11*
X52387500Y-76200000D03*
D12*
X57467500Y-76200000D03*
D13*
X56197500Y-78740000D03*
X49847500Y-81280000D03*
%TD*%
D12*
%TO.C,SW59*%
X235426250Y-76200000D03*
D11*
X240506250Y-76200000D03*
D12*
X245586250Y-76200000D03*
D13*
X244316250Y-78740000D03*
X237966250Y-81280000D03*
%TD*%
D12*
%TO.C,SW24*%
X186055000Y-19050000D03*
D11*
X180975000Y-19050000D03*
D12*
X175895000Y-19050000D03*
D13*
X177165000Y-16510000D03*
X183515000Y-13970000D03*
%TD*%
D12*
%TO.C,SW76*%
X264318750Y-23495000D03*
D11*
X264318750Y-28575000D03*
D12*
X264318750Y-33655000D03*
D13*
X261778750Y-32385000D03*
X259238750Y-26035000D03*
%TD*%
D12*
%TO.C,SW67*%
X243205000Y-76200000D03*
D11*
X238125000Y-76200000D03*
D12*
X233045000Y-76200000D03*
D13*
X234315000Y-73660000D03*
X240665000Y-71120000D03*
%TD*%
D12*
%TO.C,SW41*%
X254793750Y-33020000D03*
D11*
X254793750Y-38100000D03*
D12*
X254793750Y-43180000D03*
D13*
X252253750Y-41910000D03*
X249713750Y-35560000D03*
%TD*%
D12*
%TO.C,SW33*%
X95567500Y-38100000D03*
D11*
X90487500Y-38100000D03*
D12*
X85407500Y-38100000D03*
D13*
X86677500Y-35560000D03*
X93027500Y-33020000D03*
%TD*%
D12*
%TO.C,SW17*%
X52705000Y-19050000D03*
D11*
X47625000Y-19050000D03*
D12*
X42545000Y-19050000D03*
D13*
X43815000Y-16510000D03*
X50165000Y-13970000D03*
%TD*%
D12*
%TO.C,SW4*%
X52070000Y0D03*
D11*
X57150000Y0D03*
D12*
X62230000Y0D03*
D13*
X60960000Y-2540000D03*
X54610000Y-5080000D03*
%TD*%
D12*
%TO.C,SW15*%
X9842500Y-19050000D03*
D11*
X4762500Y-19050000D03*
D12*
X-317500Y-19050000D03*
D13*
X952500Y-16510000D03*
X7302500Y-13970000D03*
%TD*%
D12*
%TO.C,SW39*%
X209867500Y-38100000D03*
D11*
X204787500Y-38100000D03*
D12*
X199707500Y-38100000D03*
D13*
X200977500Y-35560000D03*
X207327500Y-33020000D03*
%TD*%
D12*
%TO.C,SW44*%
X66992500Y-57150000D03*
D11*
X61912500Y-57150000D03*
D12*
X56832500Y-57150000D03*
D13*
X58102500Y-54610000D03*
X64452500Y-52070000D03*
%TD*%
D12*
%TO.C,SW77*%
X242887500Y-33020000D03*
D11*
X242887500Y-38100000D03*
D12*
X242887500Y-43180000D03*
D13*
X240347500Y-41910000D03*
X237807500Y-35560000D03*
%TD*%
D12*
%TO.C,SW21*%
X128905000Y-19050000D03*
D11*
X123825000Y-19050000D03*
D12*
X118745000Y-19050000D03*
D13*
X120015000Y-16510000D03*
X126365000Y-13970000D03*
%TD*%
D12*
%TO.C,SW13*%
X223520000Y0D03*
D11*
X228600000Y0D03*
D12*
X233680000Y0D03*
D13*
X232410000Y-2540000D03*
X226060000Y-5080000D03*
%TD*%
D12*
%TO.C,SW66*%
X219392500Y-76200000D03*
D11*
X214312500Y-76200000D03*
D12*
X209232500Y-76200000D03*
D13*
X210502500Y-73660000D03*
X216852500Y-71120000D03*
%TD*%
D12*
%TO.C,SW60*%
X259238750Y-76200000D03*
D11*
X264318750Y-76200000D03*
D12*
X269398750Y-76200000D03*
D13*
X268128750Y-78740000D03*
X261778750Y-81280000D03*
%TD*%
D12*
%TO.C,SW5*%
X71120000Y0D03*
D11*
X76200000Y0D03*
D12*
X81280000Y0D03*
D13*
X80010000Y-2540000D03*
X73660000Y-5080000D03*
%TD*%
D12*
%TO.C,SW22*%
X147955000Y-19050000D03*
D11*
X142875000Y-19050000D03*
D12*
X137795000Y-19050000D03*
D13*
X139065000Y-16510000D03*
X145415000Y-13970000D03*
%TD*%
D12*
%TO.C,SW68*%
X267017500Y-76200000D03*
D11*
X261937500Y-76200000D03*
D12*
X256857500Y-76200000D03*
D13*
X258127500Y-73660000D03*
X264477500Y-71120000D03*
%TD*%
D12*
%TO.C,SW26*%
X224155000Y-19050000D03*
D11*
X219075000Y-19050000D03*
D12*
X213995000Y-19050000D03*
D13*
X215265000Y-16510000D03*
X221615000Y-13970000D03*
%TD*%
D12*
%TO.C,SW56*%
X55086250Y-76200000D03*
D11*
X50006250Y-76200000D03*
D12*
X44926250Y-76200000D03*
D13*
X46196250Y-73660000D03*
X52546250Y-71120000D03*
%TD*%
M02*
