%TF.GenerationSoftware,KiCad,Pcbnew,7.0.1*%
%TF.CreationDate,2023-05-13T17:15:20-04:00*%
%TF.ProjectId,PCB,5043422e-6b69-4636-9164-5f7063625858,rev?*%
%TF.SameCoordinates,Original*%
%TF.FileFunction,Other,Comment*%
%FSLAX46Y46*%
G04 Gerber Fmt 4.6, Leading zero omitted, Abs format (unit mm)*
G04 Created by KiCad (PCBNEW 7.0.1) date 2023-05-13 17:15:20*
%MOMM*%
%LPD*%
G01*
G04 APERTURE LIST*
%ADD10C,0.030000*%
G04 APERTURE END LIST*
D10*
%TO.C,SW73*%
X67555715Y-76087523D02*
X67555715Y-75887523D01*
X67670000Y-76087523D02*
X67584286Y-75973238D01*
X67670000Y-75887523D02*
X67555715Y-76001809D01*
X67755715Y-75982761D02*
X67822381Y-75982761D01*
X67850953Y-76087523D02*
X67755715Y-76087523D01*
X67755715Y-76087523D02*
X67755715Y-75887523D01*
X67755715Y-75887523D02*
X67850953Y-75887523D01*
X67936667Y-75982761D02*
X68003333Y-75982761D01*
X68031905Y-76087523D02*
X67936667Y-76087523D01*
X67936667Y-76087523D02*
X67936667Y-75887523D01*
X67936667Y-75887523D02*
X68031905Y-75887523D01*
X68117619Y-76087523D02*
X68117619Y-75887523D01*
X68117619Y-75887523D02*
X68193809Y-75887523D01*
X68193809Y-75887523D02*
X68212857Y-75897047D01*
X68212857Y-75897047D02*
X68222380Y-75906571D01*
X68222380Y-75906571D02*
X68231904Y-75925619D01*
X68231904Y-75925619D02*
X68231904Y-75954190D01*
X68231904Y-75954190D02*
X68222380Y-75973238D01*
X68222380Y-75973238D02*
X68212857Y-75982761D01*
X68212857Y-75982761D02*
X68193809Y-75992285D01*
X68193809Y-75992285D02*
X68117619Y-75992285D01*
X68317619Y-76011333D02*
X68470000Y-76011333D01*
X68603333Y-75887523D02*
X68641428Y-75887523D01*
X68641428Y-75887523D02*
X68660476Y-75897047D01*
X68660476Y-75897047D02*
X68679523Y-75916095D01*
X68679523Y-75916095D02*
X68689047Y-75954190D01*
X68689047Y-75954190D02*
X68689047Y-76020857D01*
X68689047Y-76020857D02*
X68679523Y-76058952D01*
X68679523Y-76058952D02*
X68660476Y-76078000D01*
X68660476Y-76078000D02*
X68641428Y-76087523D01*
X68641428Y-76087523D02*
X68603333Y-76087523D01*
X68603333Y-76087523D02*
X68584285Y-76078000D01*
X68584285Y-76078000D02*
X68565238Y-76058952D01*
X68565238Y-76058952D02*
X68555714Y-76020857D01*
X68555714Y-76020857D02*
X68555714Y-75954190D01*
X68555714Y-75954190D02*
X68565238Y-75916095D01*
X68565238Y-75916095D02*
X68584285Y-75897047D01*
X68584285Y-75897047D02*
X68603333Y-75887523D01*
X68774762Y-75887523D02*
X68774762Y-76049428D01*
X68774762Y-76049428D02*
X68784285Y-76068476D01*
X68784285Y-76068476D02*
X68793809Y-76078000D01*
X68793809Y-76078000D02*
X68812857Y-76087523D01*
X68812857Y-76087523D02*
X68850952Y-76087523D01*
X68850952Y-76087523D02*
X68870000Y-76078000D01*
X68870000Y-76078000D02*
X68879523Y-76068476D01*
X68879523Y-76068476D02*
X68889047Y-76049428D01*
X68889047Y-76049428D02*
X68889047Y-75887523D01*
X68955714Y-75887523D02*
X69070000Y-75887523D01*
X69012857Y-76087523D02*
X69012857Y-75887523D01*
X69270000Y-75887523D02*
X69403333Y-75887523D01*
X69403333Y-75887523D02*
X69270000Y-76087523D01*
X69270000Y-76087523D02*
X69403333Y-76087523D01*
X69517619Y-75887523D02*
X69555714Y-75887523D01*
X69555714Y-75887523D02*
X69574762Y-75897047D01*
X69574762Y-75897047D02*
X69593809Y-75916095D01*
X69593809Y-75916095D02*
X69603333Y-75954190D01*
X69603333Y-75954190D02*
X69603333Y-76020857D01*
X69603333Y-76020857D02*
X69593809Y-76058952D01*
X69593809Y-76058952D02*
X69574762Y-76078000D01*
X69574762Y-76078000D02*
X69555714Y-76087523D01*
X69555714Y-76087523D02*
X69517619Y-76087523D01*
X69517619Y-76087523D02*
X69498571Y-76078000D01*
X69498571Y-76078000D02*
X69479524Y-76058952D01*
X69479524Y-76058952D02*
X69470000Y-76020857D01*
X69470000Y-76020857D02*
X69470000Y-75954190D01*
X69470000Y-75954190D02*
X69479524Y-75916095D01*
X69479524Y-75916095D02*
X69498571Y-75897047D01*
X69498571Y-75897047D02*
X69517619Y-75887523D01*
X69689048Y-76087523D02*
X69689048Y-75887523D01*
X69689048Y-75887523D02*
X69803333Y-76087523D01*
X69803333Y-76087523D02*
X69803333Y-75887523D01*
X69898572Y-75982761D02*
X69965238Y-75982761D01*
X69993810Y-76087523D02*
X69898572Y-76087523D01*
X69898572Y-76087523D02*
X69898572Y-75887523D01*
X69898572Y-75887523D02*
X69993810Y-75887523D01*
X62555715Y-76087523D02*
X62555715Y-75887523D01*
X62670000Y-76087523D02*
X62584286Y-75973238D01*
X62670000Y-75887523D02*
X62555715Y-76001809D01*
X62755715Y-75982761D02*
X62822381Y-75982761D01*
X62850953Y-76087523D02*
X62755715Y-76087523D01*
X62755715Y-76087523D02*
X62755715Y-75887523D01*
X62755715Y-75887523D02*
X62850953Y-75887523D01*
X62936667Y-75982761D02*
X63003333Y-75982761D01*
X63031905Y-76087523D02*
X62936667Y-76087523D01*
X62936667Y-76087523D02*
X62936667Y-75887523D01*
X62936667Y-75887523D02*
X63031905Y-75887523D01*
X63117619Y-76087523D02*
X63117619Y-75887523D01*
X63117619Y-75887523D02*
X63193809Y-75887523D01*
X63193809Y-75887523D02*
X63212857Y-75897047D01*
X63212857Y-75897047D02*
X63222380Y-75906571D01*
X63222380Y-75906571D02*
X63231904Y-75925619D01*
X63231904Y-75925619D02*
X63231904Y-75954190D01*
X63231904Y-75954190D02*
X63222380Y-75973238D01*
X63222380Y-75973238D02*
X63212857Y-75982761D01*
X63212857Y-75982761D02*
X63193809Y-75992285D01*
X63193809Y-75992285D02*
X63117619Y-75992285D01*
X63317619Y-76011333D02*
X63470000Y-76011333D01*
X63603333Y-75887523D02*
X63641428Y-75887523D01*
X63641428Y-75887523D02*
X63660476Y-75897047D01*
X63660476Y-75897047D02*
X63679523Y-75916095D01*
X63679523Y-75916095D02*
X63689047Y-75954190D01*
X63689047Y-75954190D02*
X63689047Y-76020857D01*
X63689047Y-76020857D02*
X63679523Y-76058952D01*
X63679523Y-76058952D02*
X63660476Y-76078000D01*
X63660476Y-76078000D02*
X63641428Y-76087523D01*
X63641428Y-76087523D02*
X63603333Y-76087523D01*
X63603333Y-76087523D02*
X63584285Y-76078000D01*
X63584285Y-76078000D02*
X63565238Y-76058952D01*
X63565238Y-76058952D02*
X63555714Y-76020857D01*
X63555714Y-76020857D02*
X63555714Y-75954190D01*
X63555714Y-75954190D02*
X63565238Y-75916095D01*
X63565238Y-75916095D02*
X63584285Y-75897047D01*
X63584285Y-75897047D02*
X63603333Y-75887523D01*
X63774762Y-75887523D02*
X63774762Y-76049428D01*
X63774762Y-76049428D02*
X63784285Y-76068476D01*
X63784285Y-76068476D02*
X63793809Y-76078000D01*
X63793809Y-76078000D02*
X63812857Y-76087523D01*
X63812857Y-76087523D02*
X63850952Y-76087523D01*
X63850952Y-76087523D02*
X63870000Y-76078000D01*
X63870000Y-76078000D02*
X63879523Y-76068476D01*
X63879523Y-76068476D02*
X63889047Y-76049428D01*
X63889047Y-76049428D02*
X63889047Y-75887523D01*
X63955714Y-75887523D02*
X64070000Y-75887523D01*
X64012857Y-76087523D02*
X64012857Y-75887523D01*
X64270000Y-75887523D02*
X64403333Y-75887523D01*
X64403333Y-75887523D02*
X64270000Y-76087523D01*
X64270000Y-76087523D02*
X64403333Y-76087523D01*
X64517619Y-75887523D02*
X64555714Y-75887523D01*
X64555714Y-75887523D02*
X64574762Y-75897047D01*
X64574762Y-75897047D02*
X64593809Y-75916095D01*
X64593809Y-75916095D02*
X64603333Y-75954190D01*
X64603333Y-75954190D02*
X64603333Y-76020857D01*
X64603333Y-76020857D02*
X64593809Y-76058952D01*
X64593809Y-76058952D02*
X64574762Y-76078000D01*
X64574762Y-76078000D02*
X64555714Y-76087523D01*
X64555714Y-76087523D02*
X64517619Y-76087523D01*
X64517619Y-76087523D02*
X64498571Y-76078000D01*
X64498571Y-76078000D02*
X64479524Y-76058952D01*
X64479524Y-76058952D02*
X64470000Y-76020857D01*
X64470000Y-76020857D02*
X64470000Y-75954190D01*
X64470000Y-75954190D02*
X64479524Y-75916095D01*
X64479524Y-75916095D02*
X64498571Y-75897047D01*
X64498571Y-75897047D02*
X64517619Y-75887523D01*
X64689048Y-76087523D02*
X64689048Y-75887523D01*
X64689048Y-75887523D02*
X64803333Y-76087523D01*
X64803333Y-76087523D02*
X64803333Y-75887523D01*
X64898572Y-75982761D02*
X64965238Y-75982761D01*
X64993810Y-76087523D02*
X64898572Y-76087523D01*
X64898572Y-76087523D02*
X64898572Y-75887523D01*
X64898572Y-75887523D02*
X64993810Y-75887523D01*
X67689047Y-76487523D02*
X67689047Y-76287523D01*
X67689047Y-76287523D02*
X67803332Y-76487523D01*
X67803332Y-76487523D02*
X67803332Y-76287523D01*
X67927142Y-76487523D02*
X67908094Y-76478000D01*
X67908094Y-76478000D02*
X67898571Y-76468476D01*
X67898571Y-76468476D02*
X67889047Y-76449428D01*
X67889047Y-76449428D02*
X67889047Y-76392285D01*
X67889047Y-76392285D02*
X67898571Y-76373238D01*
X67898571Y-76373238D02*
X67908094Y-76363714D01*
X67908094Y-76363714D02*
X67927142Y-76354190D01*
X67927142Y-76354190D02*
X67955713Y-76354190D01*
X67955713Y-76354190D02*
X67974761Y-76363714D01*
X67974761Y-76363714D02*
X67984285Y-76373238D01*
X67984285Y-76373238D02*
X67993809Y-76392285D01*
X67993809Y-76392285D02*
X67993809Y-76449428D01*
X67993809Y-76449428D02*
X67984285Y-76468476D01*
X67984285Y-76468476D02*
X67974761Y-76478000D01*
X67974761Y-76478000D02*
X67955713Y-76487523D01*
X67955713Y-76487523D02*
X67927142Y-76487523D01*
X68298570Y-76382761D02*
X68231904Y-76382761D01*
X68231904Y-76487523D02*
X68231904Y-76287523D01*
X68231904Y-76287523D02*
X68327142Y-76287523D01*
X68403333Y-76468476D02*
X68412856Y-76478000D01*
X68412856Y-76478000D02*
X68403333Y-76487523D01*
X68403333Y-76487523D02*
X68393809Y-76478000D01*
X68393809Y-76478000D02*
X68403333Y-76468476D01*
X68403333Y-76468476D02*
X68403333Y-76487523D01*
X68612856Y-76468476D02*
X68603332Y-76478000D01*
X68603332Y-76478000D02*
X68574761Y-76487523D01*
X68574761Y-76487523D02*
X68555713Y-76487523D01*
X68555713Y-76487523D02*
X68527142Y-76478000D01*
X68527142Y-76478000D02*
X68508094Y-76458952D01*
X68508094Y-76458952D02*
X68498571Y-76439904D01*
X68498571Y-76439904D02*
X68489047Y-76401809D01*
X68489047Y-76401809D02*
X68489047Y-76373238D01*
X68489047Y-76373238D02*
X68498571Y-76335142D01*
X68498571Y-76335142D02*
X68508094Y-76316095D01*
X68508094Y-76316095D02*
X68527142Y-76297047D01*
X68527142Y-76297047D02*
X68555713Y-76287523D01*
X68555713Y-76287523D02*
X68574761Y-76287523D01*
X68574761Y-76287523D02*
X68603332Y-76297047D01*
X68603332Y-76297047D02*
X68612856Y-76306571D01*
X68784285Y-76354190D02*
X68784285Y-76487523D01*
X68698571Y-76354190D02*
X68698571Y-76458952D01*
X68698571Y-76458952D02*
X68708094Y-76478000D01*
X68708094Y-76478000D02*
X68727142Y-76487523D01*
X68727142Y-76487523D02*
X68755713Y-76487523D01*
X68755713Y-76487523D02*
X68774761Y-76478000D01*
X68774761Y-76478000D02*
X68784285Y-76468476D01*
X69003332Y-76354190D02*
X69079523Y-76354190D01*
X69031904Y-76287523D02*
X69031904Y-76458952D01*
X69031904Y-76458952D02*
X69041427Y-76478000D01*
X69041427Y-76478000D02*
X69060475Y-76487523D01*
X69060475Y-76487523D02*
X69079523Y-76487523D01*
X69146190Y-76487523D02*
X69146190Y-76354190D01*
X69146190Y-76392285D02*
X69155713Y-76373238D01*
X69155713Y-76373238D02*
X69165237Y-76363714D01*
X69165237Y-76363714D02*
X69184285Y-76354190D01*
X69184285Y-76354190D02*
X69203332Y-76354190D01*
X69355714Y-76487523D02*
X69355714Y-76382761D01*
X69355714Y-76382761D02*
X69346190Y-76363714D01*
X69346190Y-76363714D02*
X69327142Y-76354190D01*
X69327142Y-76354190D02*
X69289047Y-76354190D01*
X69289047Y-76354190D02*
X69270000Y-76363714D01*
X69355714Y-76478000D02*
X69336666Y-76487523D01*
X69336666Y-76487523D02*
X69289047Y-76487523D01*
X69289047Y-76487523D02*
X69270000Y-76478000D01*
X69270000Y-76478000D02*
X69260476Y-76458952D01*
X69260476Y-76458952D02*
X69260476Y-76439904D01*
X69260476Y-76439904D02*
X69270000Y-76420857D01*
X69270000Y-76420857D02*
X69289047Y-76411333D01*
X69289047Y-76411333D02*
X69336666Y-76411333D01*
X69336666Y-76411333D02*
X69355714Y-76401809D01*
X69536666Y-76478000D02*
X69517618Y-76487523D01*
X69517618Y-76487523D02*
X69479523Y-76487523D01*
X69479523Y-76487523D02*
X69460475Y-76478000D01*
X69460475Y-76478000D02*
X69450952Y-76468476D01*
X69450952Y-76468476D02*
X69441428Y-76449428D01*
X69441428Y-76449428D02*
X69441428Y-76392285D01*
X69441428Y-76392285D02*
X69450952Y-76373238D01*
X69450952Y-76373238D02*
X69460475Y-76363714D01*
X69460475Y-76363714D02*
X69479523Y-76354190D01*
X69479523Y-76354190D02*
X69517618Y-76354190D01*
X69517618Y-76354190D02*
X69536666Y-76363714D01*
X69622381Y-76487523D02*
X69622381Y-76287523D01*
X69641428Y-76411333D02*
X69698571Y-76487523D01*
X69698571Y-76354190D02*
X69622381Y-76430380D01*
X69774762Y-76478000D02*
X69793809Y-76487523D01*
X69793809Y-76487523D02*
X69831905Y-76487523D01*
X69831905Y-76487523D02*
X69850952Y-76478000D01*
X69850952Y-76478000D02*
X69860476Y-76458952D01*
X69860476Y-76458952D02*
X69860476Y-76449428D01*
X69860476Y-76449428D02*
X69850952Y-76430380D01*
X69850952Y-76430380D02*
X69831905Y-76420857D01*
X69831905Y-76420857D02*
X69803333Y-76420857D01*
X69803333Y-76420857D02*
X69784286Y-76411333D01*
X69784286Y-76411333D02*
X69774762Y-76392285D01*
X69774762Y-76392285D02*
X69774762Y-76382761D01*
X69774762Y-76382761D02*
X69784286Y-76363714D01*
X69784286Y-76363714D02*
X69803333Y-76354190D01*
X69803333Y-76354190D02*
X69831905Y-76354190D01*
X69831905Y-76354190D02*
X69850952Y-76363714D01*
X62689047Y-76487523D02*
X62689047Y-76287523D01*
X62689047Y-76287523D02*
X62803332Y-76487523D01*
X62803332Y-76487523D02*
X62803332Y-76287523D01*
X62927142Y-76487523D02*
X62908094Y-76478000D01*
X62908094Y-76478000D02*
X62898571Y-76468476D01*
X62898571Y-76468476D02*
X62889047Y-76449428D01*
X62889047Y-76449428D02*
X62889047Y-76392285D01*
X62889047Y-76392285D02*
X62898571Y-76373238D01*
X62898571Y-76373238D02*
X62908094Y-76363714D01*
X62908094Y-76363714D02*
X62927142Y-76354190D01*
X62927142Y-76354190D02*
X62955713Y-76354190D01*
X62955713Y-76354190D02*
X62974761Y-76363714D01*
X62974761Y-76363714D02*
X62984285Y-76373238D01*
X62984285Y-76373238D02*
X62993809Y-76392285D01*
X62993809Y-76392285D02*
X62993809Y-76449428D01*
X62993809Y-76449428D02*
X62984285Y-76468476D01*
X62984285Y-76468476D02*
X62974761Y-76478000D01*
X62974761Y-76478000D02*
X62955713Y-76487523D01*
X62955713Y-76487523D02*
X62927142Y-76487523D01*
X63298570Y-76382761D02*
X63231904Y-76382761D01*
X63231904Y-76487523D02*
X63231904Y-76287523D01*
X63231904Y-76287523D02*
X63327142Y-76287523D01*
X63403333Y-76468476D02*
X63412856Y-76478000D01*
X63412856Y-76478000D02*
X63403333Y-76487523D01*
X63403333Y-76487523D02*
X63393809Y-76478000D01*
X63393809Y-76478000D02*
X63403333Y-76468476D01*
X63403333Y-76468476D02*
X63403333Y-76487523D01*
X63612856Y-76468476D02*
X63603332Y-76478000D01*
X63603332Y-76478000D02*
X63574761Y-76487523D01*
X63574761Y-76487523D02*
X63555713Y-76487523D01*
X63555713Y-76487523D02*
X63527142Y-76478000D01*
X63527142Y-76478000D02*
X63508094Y-76458952D01*
X63508094Y-76458952D02*
X63498571Y-76439904D01*
X63498571Y-76439904D02*
X63489047Y-76401809D01*
X63489047Y-76401809D02*
X63489047Y-76373238D01*
X63489047Y-76373238D02*
X63498571Y-76335142D01*
X63498571Y-76335142D02*
X63508094Y-76316095D01*
X63508094Y-76316095D02*
X63527142Y-76297047D01*
X63527142Y-76297047D02*
X63555713Y-76287523D01*
X63555713Y-76287523D02*
X63574761Y-76287523D01*
X63574761Y-76287523D02*
X63603332Y-76297047D01*
X63603332Y-76297047D02*
X63612856Y-76306571D01*
X63784285Y-76354190D02*
X63784285Y-76487523D01*
X63698571Y-76354190D02*
X63698571Y-76458952D01*
X63698571Y-76458952D02*
X63708094Y-76478000D01*
X63708094Y-76478000D02*
X63727142Y-76487523D01*
X63727142Y-76487523D02*
X63755713Y-76487523D01*
X63755713Y-76487523D02*
X63774761Y-76478000D01*
X63774761Y-76478000D02*
X63784285Y-76468476D01*
X64003332Y-76354190D02*
X64079523Y-76354190D01*
X64031904Y-76287523D02*
X64031904Y-76458952D01*
X64031904Y-76458952D02*
X64041427Y-76478000D01*
X64041427Y-76478000D02*
X64060475Y-76487523D01*
X64060475Y-76487523D02*
X64079523Y-76487523D01*
X64146190Y-76487523D02*
X64146190Y-76354190D01*
X64146190Y-76392285D02*
X64155713Y-76373238D01*
X64155713Y-76373238D02*
X64165237Y-76363714D01*
X64165237Y-76363714D02*
X64184285Y-76354190D01*
X64184285Y-76354190D02*
X64203332Y-76354190D01*
X64355714Y-76487523D02*
X64355714Y-76382761D01*
X64355714Y-76382761D02*
X64346190Y-76363714D01*
X64346190Y-76363714D02*
X64327142Y-76354190D01*
X64327142Y-76354190D02*
X64289047Y-76354190D01*
X64289047Y-76354190D02*
X64270000Y-76363714D01*
X64355714Y-76478000D02*
X64336666Y-76487523D01*
X64336666Y-76487523D02*
X64289047Y-76487523D01*
X64289047Y-76487523D02*
X64270000Y-76478000D01*
X64270000Y-76478000D02*
X64260476Y-76458952D01*
X64260476Y-76458952D02*
X64260476Y-76439904D01*
X64260476Y-76439904D02*
X64270000Y-76420857D01*
X64270000Y-76420857D02*
X64289047Y-76411333D01*
X64289047Y-76411333D02*
X64336666Y-76411333D01*
X64336666Y-76411333D02*
X64355714Y-76401809D01*
X64536666Y-76478000D02*
X64517618Y-76487523D01*
X64517618Y-76487523D02*
X64479523Y-76487523D01*
X64479523Y-76487523D02*
X64460475Y-76478000D01*
X64460475Y-76478000D02*
X64450952Y-76468476D01*
X64450952Y-76468476D02*
X64441428Y-76449428D01*
X64441428Y-76449428D02*
X64441428Y-76392285D01*
X64441428Y-76392285D02*
X64450952Y-76373238D01*
X64450952Y-76373238D02*
X64460475Y-76363714D01*
X64460475Y-76363714D02*
X64479523Y-76354190D01*
X64479523Y-76354190D02*
X64517618Y-76354190D01*
X64517618Y-76354190D02*
X64536666Y-76363714D01*
X64622381Y-76487523D02*
X64622381Y-76287523D01*
X64641428Y-76411333D02*
X64698571Y-76487523D01*
X64698571Y-76354190D02*
X64622381Y-76430380D01*
X64774762Y-76478000D02*
X64793809Y-76487523D01*
X64793809Y-76487523D02*
X64831905Y-76487523D01*
X64831905Y-76487523D02*
X64850952Y-76478000D01*
X64850952Y-76478000D02*
X64860476Y-76458952D01*
X64860476Y-76458952D02*
X64860476Y-76449428D01*
X64860476Y-76449428D02*
X64850952Y-76430380D01*
X64850952Y-76430380D02*
X64831905Y-76420857D01*
X64831905Y-76420857D02*
X64803333Y-76420857D01*
X64803333Y-76420857D02*
X64784286Y-76411333D01*
X64784286Y-76411333D02*
X64774762Y-76392285D01*
X64774762Y-76392285D02*
X64774762Y-76382761D01*
X64774762Y-76382761D02*
X64784286Y-76363714D01*
X64784286Y-76363714D02*
X64803333Y-76354190D01*
X64803333Y-76354190D02*
X64831905Y-76354190D01*
X64831905Y-76354190D02*
X64850952Y-76363714D01*
%TO.C,SW72*%
X77179047Y-76487523D02*
X77179047Y-76287523D01*
X77179047Y-76287523D02*
X77293332Y-76487523D01*
X77293332Y-76487523D02*
X77293332Y-76287523D01*
X77417142Y-76487523D02*
X77398094Y-76478000D01*
X77398094Y-76478000D02*
X77388571Y-76468476D01*
X77388571Y-76468476D02*
X77379047Y-76449428D01*
X77379047Y-76449428D02*
X77379047Y-76392285D01*
X77379047Y-76392285D02*
X77388571Y-76373238D01*
X77388571Y-76373238D02*
X77398094Y-76363714D01*
X77398094Y-76363714D02*
X77417142Y-76354190D01*
X77417142Y-76354190D02*
X77445713Y-76354190D01*
X77445713Y-76354190D02*
X77464761Y-76363714D01*
X77464761Y-76363714D02*
X77474285Y-76373238D01*
X77474285Y-76373238D02*
X77483809Y-76392285D01*
X77483809Y-76392285D02*
X77483809Y-76449428D01*
X77483809Y-76449428D02*
X77474285Y-76468476D01*
X77474285Y-76468476D02*
X77464761Y-76478000D01*
X77464761Y-76478000D02*
X77445713Y-76487523D01*
X77445713Y-76487523D02*
X77417142Y-76487523D01*
X77788570Y-76382761D02*
X77721904Y-76382761D01*
X77721904Y-76487523D02*
X77721904Y-76287523D01*
X77721904Y-76287523D02*
X77817142Y-76287523D01*
X77893333Y-76468476D02*
X77902856Y-76478000D01*
X77902856Y-76478000D02*
X77893333Y-76487523D01*
X77893333Y-76487523D02*
X77883809Y-76478000D01*
X77883809Y-76478000D02*
X77893333Y-76468476D01*
X77893333Y-76468476D02*
X77893333Y-76487523D01*
X78102856Y-76468476D02*
X78093332Y-76478000D01*
X78093332Y-76478000D02*
X78064761Y-76487523D01*
X78064761Y-76487523D02*
X78045713Y-76487523D01*
X78045713Y-76487523D02*
X78017142Y-76478000D01*
X78017142Y-76478000D02*
X77998094Y-76458952D01*
X77998094Y-76458952D02*
X77988571Y-76439904D01*
X77988571Y-76439904D02*
X77979047Y-76401809D01*
X77979047Y-76401809D02*
X77979047Y-76373238D01*
X77979047Y-76373238D02*
X77988571Y-76335142D01*
X77988571Y-76335142D02*
X77998094Y-76316095D01*
X77998094Y-76316095D02*
X78017142Y-76297047D01*
X78017142Y-76297047D02*
X78045713Y-76287523D01*
X78045713Y-76287523D02*
X78064761Y-76287523D01*
X78064761Y-76287523D02*
X78093332Y-76297047D01*
X78093332Y-76297047D02*
X78102856Y-76306571D01*
X78274285Y-76354190D02*
X78274285Y-76487523D01*
X78188571Y-76354190D02*
X78188571Y-76458952D01*
X78188571Y-76458952D02*
X78198094Y-76478000D01*
X78198094Y-76478000D02*
X78217142Y-76487523D01*
X78217142Y-76487523D02*
X78245713Y-76487523D01*
X78245713Y-76487523D02*
X78264761Y-76478000D01*
X78264761Y-76478000D02*
X78274285Y-76468476D01*
X78493332Y-76354190D02*
X78569523Y-76354190D01*
X78521904Y-76287523D02*
X78521904Y-76458952D01*
X78521904Y-76458952D02*
X78531427Y-76478000D01*
X78531427Y-76478000D02*
X78550475Y-76487523D01*
X78550475Y-76487523D02*
X78569523Y-76487523D01*
X78636190Y-76487523D02*
X78636190Y-76354190D01*
X78636190Y-76392285D02*
X78645713Y-76373238D01*
X78645713Y-76373238D02*
X78655237Y-76363714D01*
X78655237Y-76363714D02*
X78674285Y-76354190D01*
X78674285Y-76354190D02*
X78693332Y-76354190D01*
X78845714Y-76487523D02*
X78845714Y-76382761D01*
X78845714Y-76382761D02*
X78836190Y-76363714D01*
X78836190Y-76363714D02*
X78817142Y-76354190D01*
X78817142Y-76354190D02*
X78779047Y-76354190D01*
X78779047Y-76354190D02*
X78760000Y-76363714D01*
X78845714Y-76478000D02*
X78826666Y-76487523D01*
X78826666Y-76487523D02*
X78779047Y-76487523D01*
X78779047Y-76487523D02*
X78760000Y-76478000D01*
X78760000Y-76478000D02*
X78750476Y-76458952D01*
X78750476Y-76458952D02*
X78750476Y-76439904D01*
X78750476Y-76439904D02*
X78760000Y-76420857D01*
X78760000Y-76420857D02*
X78779047Y-76411333D01*
X78779047Y-76411333D02*
X78826666Y-76411333D01*
X78826666Y-76411333D02*
X78845714Y-76401809D01*
X79026666Y-76478000D02*
X79007618Y-76487523D01*
X79007618Y-76487523D02*
X78969523Y-76487523D01*
X78969523Y-76487523D02*
X78950475Y-76478000D01*
X78950475Y-76478000D02*
X78940952Y-76468476D01*
X78940952Y-76468476D02*
X78931428Y-76449428D01*
X78931428Y-76449428D02*
X78931428Y-76392285D01*
X78931428Y-76392285D02*
X78940952Y-76373238D01*
X78940952Y-76373238D02*
X78950475Y-76363714D01*
X78950475Y-76363714D02*
X78969523Y-76354190D01*
X78969523Y-76354190D02*
X79007618Y-76354190D01*
X79007618Y-76354190D02*
X79026666Y-76363714D01*
X79112381Y-76487523D02*
X79112381Y-76287523D01*
X79131428Y-76411333D02*
X79188571Y-76487523D01*
X79188571Y-76354190D02*
X79112381Y-76430380D01*
X79264762Y-76478000D02*
X79283809Y-76487523D01*
X79283809Y-76487523D02*
X79321905Y-76487523D01*
X79321905Y-76487523D02*
X79340952Y-76478000D01*
X79340952Y-76478000D02*
X79350476Y-76458952D01*
X79350476Y-76458952D02*
X79350476Y-76449428D01*
X79350476Y-76449428D02*
X79340952Y-76430380D01*
X79340952Y-76430380D02*
X79321905Y-76420857D01*
X79321905Y-76420857D02*
X79293333Y-76420857D01*
X79293333Y-76420857D02*
X79274286Y-76411333D01*
X79274286Y-76411333D02*
X79264762Y-76392285D01*
X79264762Y-76392285D02*
X79264762Y-76382761D01*
X79264762Y-76382761D02*
X79274286Y-76363714D01*
X79274286Y-76363714D02*
X79293333Y-76354190D01*
X79293333Y-76354190D02*
X79321905Y-76354190D01*
X79321905Y-76354190D02*
X79340952Y-76363714D01*
X77045715Y-76087523D02*
X77045715Y-75887523D01*
X77160000Y-76087523D02*
X77074286Y-75973238D01*
X77160000Y-75887523D02*
X77045715Y-76001809D01*
X77245715Y-75982761D02*
X77312381Y-75982761D01*
X77340953Y-76087523D02*
X77245715Y-76087523D01*
X77245715Y-76087523D02*
X77245715Y-75887523D01*
X77245715Y-75887523D02*
X77340953Y-75887523D01*
X77426667Y-75982761D02*
X77493333Y-75982761D01*
X77521905Y-76087523D02*
X77426667Y-76087523D01*
X77426667Y-76087523D02*
X77426667Y-75887523D01*
X77426667Y-75887523D02*
X77521905Y-75887523D01*
X77607619Y-76087523D02*
X77607619Y-75887523D01*
X77607619Y-75887523D02*
X77683809Y-75887523D01*
X77683809Y-75887523D02*
X77702857Y-75897047D01*
X77702857Y-75897047D02*
X77712380Y-75906571D01*
X77712380Y-75906571D02*
X77721904Y-75925619D01*
X77721904Y-75925619D02*
X77721904Y-75954190D01*
X77721904Y-75954190D02*
X77712380Y-75973238D01*
X77712380Y-75973238D02*
X77702857Y-75982761D01*
X77702857Y-75982761D02*
X77683809Y-75992285D01*
X77683809Y-75992285D02*
X77607619Y-75992285D01*
X77807619Y-76011333D02*
X77960000Y-76011333D01*
X78093333Y-75887523D02*
X78131428Y-75887523D01*
X78131428Y-75887523D02*
X78150476Y-75897047D01*
X78150476Y-75897047D02*
X78169523Y-75916095D01*
X78169523Y-75916095D02*
X78179047Y-75954190D01*
X78179047Y-75954190D02*
X78179047Y-76020857D01*
X78179047Y-76020857D02*
X78169523Y-76058952D01*
X78169523Y-76058952D02*
X78150476Y-76078000D01*
X78150476Y-76078000D02*
X78131428Y-76087523D01*
X78131428Y-76087523D02*
X78093333Y-76087523D01*
X78093333Y-76087523D02*
X78074285Y-76078000D01*
X78074285Y-76078000D02*
X78055238Y-76058952D01*
X78055238Y-76058952D02*
X78045714Y-76020857D01*
X78045714Y-76020857D02*
X78045714Y-75954190D01*
X78045714Y-75954190D02*
X78055238Y-75916095D01*
X78055238Y-75916095D02*
X78074285Y-75897047D01*
X78074285Y-75897047D02*
X78093333Y-75887523D01*
X78264762Y-75887523D02*
X78264762Y-76049428D01*
X78264762Y-76049428D02*
X78274285Y-76068476D01*
X78274285Y-76068476D02*
X78283809Y-76078000D01*
X78283809Y-76078000D02*
X78302857Y-76087523D01*
X78302857Y-76087523D02*
X78340952Y-76087523D01*
X78340952Y-76087523D02*
X78360000Y-76078000D01*
X78360000Y-76078000D02*
X78369523Y-76068476D01*
X78369523Y-76068476D02*
X78379047Y-76049428D01*
X78379047Y-76049428D02*
X78379047Y-75887523D01*
X78445714Y-75887523D02*
X78560000Y-75887523D01*
X78502857Y-76087523D02*
X78502857Y-75887523D01*
X78760000Y-75887523D02*
X78893333Y-75887523D01*
X78893333Y-75887523D02*
X78760000Y-76087523D01*
X78760000Y-76087523D02*
X78893333Y-76087523D01*
X79007619Y-75887523D02*
X79045714Y-75887523D01*
X79045714Y-75887523D02*
X79064762Y-75897047D01*
X79064762Y-75897047D02*
X79083809Y-75916095D01*
X79083809Y-75916095D02*
X79093333Y-75954190D01*
X79093333Y-75954190D02*
X79093333Y-76020857D01*
X79093333Y-76020857D02*
X79083809Y-76058952D01*
X79083809Y-76058952D02*
X79064762Y-76078000D01*
X79064762Y-76078000D02*
X79045714Y-76087523D01*
X79045714Y-76087523D02*
X79007619Y-76087523D01*
X79007619Y-76087523D02*
X78988571Y-76078000D01*
X78988571Y-76078000D02*
X78969524Y-76058952D01*
X78969524Y-76058952D02*
X78960000Y-76020857D01*
X78960000Y-76020857D02*
X78960000Y-75954190D01*
X78960000Y-75954190D02*
X78969524Y-75916095D01*
X78969524Y-75916095D02*
X78988571Y-75897047D01*
X78988571Y-75897047D02*
X79007619Y-75887523D01*
X79179048Y-76087523D02*
X79179048Y-75887523D01*
X79179048Y-75887523D02*
X79293333Y-76087523D01*
X79293333Y-76087523D02*
X79293333Y-75887523D01*
X79388572Y-75982761D02*
X79455238Y-75982761D01*
X79483810Y-76087523D02*
X79388572Y-76087523D01*
X79388572Y-76087523D02*
X79388572Y-75887523D01*
X79388572Y-75887523D02*
X79483810Y-75887523D01*
X72179047Y-76487523D02*
X72179047Y-76287523D01*
X72179047Y-76287523D02*
X72293332Y-76487523D01*
X72293332Y-76487523D02*
X72293332Y-76287523D01*
X72417142Y-76487523D02*
X72398094Y-76478000D01*
X72398094Y-76478000D02*
X72388571Y-76468476D01*
X72388571Y-76468476D02*
X72379047Y-76449428D01*
X72379047Y-76449428D02*
X72379047Y-76392285D01*
X72379047Y-76392285D02*
X72388571Y-76373238D01*
X72388571Y-76373238D02*
X72398094Y-76363714D01*
X72398094Y-76363714D02*
X72417142Y-76354190D01*
X72417142Y-76354190D02*
X72445713Y-76354190D01*
X72445713Y-76354190D02*
X72464761Y-76363714D01*
X72464761Y-76363714D02*
X72474285Y-76373238D01*
X72474285Y-76373238D02*
X72483809Y-76392285D01*
X72483809Y-76392285D02*
X72483809Y-76449428D01*
X72483809Y-76449428D02*
X72474285Y-76468476D01*
X72474285Y-76468476D02*
X72464761Y-76478000D01*
X72464761Y-76478000D02*
X72445713Y-76487523D01*
X72445713Y-76487523D02*
X72417142Y-76487523D01*
X72788570Y-76382761D02*
X72721904Y-76382761D01*
X72721904Y-76487523D02*
X72721904Y-76287523D01*
X72721904Y-76287523D02*
X72817142Y-76287523D01*
X72893333Y-76468476D02*
X72902856Y-76478000D01*
X72902856Y-76478000D02*
X72893333Y-76487523D01*
X72893333Y-76487523D02*
X72883809Y-76478000D01*
X72883809Y-76478000D02*
X72893333Y-76468476D01*
X72893333Y-76468476D02*
X72893333Y-76487523D01*
X73102856Y-76468476D02*
X73093332Y-76478000D01*
X73093332Y-76478000D02*
X73064761Y-76487523D01*
X73064761Y-76487523D02*
X73045713Y-76487523D01*
X73045713Y-76487523D02*
X73017142Y-76478000D01*
X73017142Y-76478000D02*
X72998094Y-76458952D01*
X72998094Y-76458952D02*
X72988571Y-76439904D01*
X72988571Y-76439904D02*
X72979047Y-76401809D01*
X72979047Y-76401809D02*
X72979047Y-76373238D01*
X72979047Y-76373238D02*
X72988571Y-76335142D01*
X72988571Y-76335142D02*
X72998094Y-76316095D01*
X72998094Y-76316095D02*
X73017142Y-76297047D01*
X73017142Y-76297047D02*
X73045713Y-76287523D01*
X73045713Y-76287523D02*
X73064761Y-76287523D01*
X73064761Y-76287523D02*
X73093332Y-76297047D01*
X73093332Y-76297047D02*
X73102856Y-76306571D01*
X73274285Y-76354190D02*
X73274285Y-76487523D01*
X73188571Y-76354190D02*
X73188571Y-76458952D01*
X73188571Y-76458952D02*
X73198094Y-76478000D01*
X73198094Y-76478000D02*
X73217142Y-76487523D01*
X73217142Y-76487523D02*
X73245713Y-76487523D01*
X73245713Y-76487523D02*
X73264761Y-76478000D01*
X73264761Y-76478000D02*
X73274285Y-76468476D01*
X73493332Y-76354190D02*
X73569523Y-76354190D01*
X73521904Y-76287523D02*
X73521904Y-76458952D01*
X73521904Y-76458952D02*
X73531427Y-76478000D01*
X73531427Y-76478000D02*
X73550475Y-76487523D01*
X73550475Y-76487523D02*
X73569523Y-76487523D01*
X73636190Y-76487523D02*
X73636190Y-76354190D01*
X73636190Y-76392285D02*
X73645713Y-76373238D01*
X73645713Y-76373238D02*
X73655237Y-76363714D01*
X73655237Y-76363714D02*
X73674285Y-76354190D01*
X73674285Y-76354190D02*
X73693332Y-76354190D01*
X73845714Y-76487523D02*
X73845714Y-76382761D01*
X73845714Y-76382761D02*
X73836190Y-76363714D01*
X73836190Y-76363714D02*
X73817142Y-76354190D01*
X73817142Y-76354190D02*
X73779047Y-76354190D01*
X73779047Y-76354190D02*
X73760000Y-76363714D01*
X73845714Y-76478000D02*
X73826666Y-76487523D01*
X73826666Y-76487523D02*
X73779047Y-76487523D01*
X73779047Y-76487523D02*
X73760000Y-76478000D01*
X73760000Y-76478000D02*
X73750476Y-76458952D01*
X73750476Y-76458952D02*
X73750476Y-76439904D01*
X73750476Y-76439904D02*
X73760000Y-76420857D01*
X73760000Y-76420857D02*
X73779047Y-76411333D01*
X73779047Y-76411333D02*
X73826666Y-76411333D01*
X73826666Y-76411333D02*
X73845714Y-76401809D01*
X74026666Y-76478000D02*
X74007618Y-76487523D01*
X74007618Y-76487523D02*
X73969523Y-76487523D01*
X73969523Y-76487523D02*
X73950475Y-76478000D01*
X73950475Y-76478000D02*
X73940952Y-76468476D01*
X73940952Y-76468476D02*
X73931428Y-76449428D01*
X73931428Y-76449428D02*
X73931428Y-76392285D01*
X73931428Y-76392285D02*
X73940952Y-76373238D01*
X73940952Y-76373238D02*
X73950475Y-76363714D01*
X73950475Y-76363714D02*
X73969523Y-76354190D01*
X73969523Y-76354190D02*
X74007618Y-76354190D01*
X74007618Y-76354190D02*
X74026666Y-76363714D01*
X74112381Y-76487523D02*
X74112381Y-76287523D01*
X74131428Y-76411333D02*
X74188571Y-76487523D01*
X74188571Y-76354190D02*
X74112381Y-76430380D01*
X74264762Y-76478000D02*
X74283809Y-76487523D01*
X74283809Y-76487523D02*
X74321905Y-76487523D01*
X74321905Y-76487523D02*
X74340952Y-76478000D01*
X74340952Y-76478000D02*
X74350476Y-76458952D01*
X74350476Y-76458952D02*
X74350476Y-76449428D01*
X74350476Y-76449428D02*
X74340952Y-76430380D01*
X74340952Y-76430380D02*
X74321905Y-76420857D01*
X74321905Y-76420857D02*
X74293333Y-76420857D01*
X74293333Y-76420857D02*
X74274286Y-76411333D01*
X74274286Y-76411333D02*
X74264762Y-76392285D01*
X74264762Y-76392285D02*
X74264762Y-76382761D01*
X74264762Y-76382761D02*
X74274286Y-76363714D01*
X74274286Y-76363714D02*
X74293333Y-76354190D01*
X74293333Y-76354190D02*
X74321905Y-76354190D01*
X74321905Y-76354190D02*
X74340952Y-76363714D01*
X72045715Y-76087523D02*
X72045715Y-75887523D01*
X72160000Y-76087523D02*
X72074286Y-75973238D01*
X72160000Y-75887523D02*
X72045715Y-76001809D01*
X72245715Y-75982761D02*
X72312381Y-75982761D01*
X72340953Y-76087523D02*
X72245715Y-76087523D01*
X72245715Y-76087523D02*
X72245715Y-75887523D01*
X72245715Y-75887523D02*
X72340953Y-75887523D01*
X72426667Y-75982761D02*
X72493333Y-75982761D01*
X72521905Y-76087523D02*
X72426667Y-76087523D01*
X72426667Y-76087523D02*
X72426667Y-75887523D01*
X72426667Y-75887523D02*
X72521905Y-75887523D01*
X72607619Y-76087523D02*
X72607619Y-75887523D01*
X72607619Y-75887523D02*
X72683809Y-75887523D01*
X72683809Y-75887523D02*
X72702857Y-75897047D01*
X72702857Y-75897047D02*
X72712380Y-75906571D01*
X72712380Y-75906571D02*
X72721904Y-75925619D01*
X72721904Y-75925619D02*
X72721904Y-75954190D01*
X72721904Y-75954190D02*
X72712380Y-75973238D01*
X72712380Y-75973238D02*
X72702857Y-75982761D01*
X72702857Y-75982761D02*
X72683809Y-75992285D01*
X72683809Y-75992285D02*
X72607619Y-75992285D01*
X72807619Y-76011333D02*
X72960000Y-76011333D01*
X73093333Y-75887523D02*
X73131428Y-75887523D01*
X73131428Y-75887523D02*
X73150476Y-75897047D01*
X73150476Y-75897047D02*
X73169523Y-75916095D01*
X73169523Y-75916095D02*
X73179047Y-75954190D01*
X73179047Y-75954190D02*
X73179047Y-76020857D01*
X73179047Y-76020857D02*
X73169523Y-76058952D01*
X73169523Y-76058952D02*
X73150476Y-76078000D01*
X73150476Y-76078000D02*
X73131428Y-76087523D01*
X73131428Y-76087523D02*
X73093333Y-76087523D01*
X73093333Y-76087523D02*
X73074285Y-76078000D01*
X73074285Y-76078000D02*
X73055238Y-76058952D01*
X73055238Y-76058952D02*
X73045714Y-76020857D01*
X73045714Y-76020857D02*
X73045714Y-75954190D01*
X73045714Y-75954190D02*
X73055238Y-75916095D01*
X73055238Y-75916095D02*
X73074285Y-75897047D01*
X73074285Y-75897047D02*
X73093333Y-75887523D01*
X73264762Y-75887523D02*
X73264762Y-76049428D01*
X73264762Y-76049428D02*
X73274285Y-76068476D01*
X73274285Y-76068476D02*
X73283809Y-76078000D01*
X73283809Y-76078000D02*
X73302857Y-76087523D01*
X73302857Y-76087523D02*
X73340952Y-76087523D01*
X73340952Y-76087523D02*
X73360000Y-76078000D01*
X73360000Y-76078000D02*
X73369523Y-76068476D01*
X73369523Y-76068476D02*
X73379047Y-76049428D01*
X73379047Y-76049428D02*
X73379047Y-75887523D01*
X73445714Y-75887523D02*
X73560000Y-75887523D01*
X73502857Y-76087523D02*
X73502857Y-75887523D01*
X73760000Y-75887523D02*
X73893333Y-75887523D01*
X73893333Y-75887523D02*
X73760000Y-76087523D01*
X73760000Y-76087523D02*
X73893333Y-76087523D01*
X74007619Y-75887523D02*
X74045714Y-75887523D01*
X74045714Y-75887523D02*
X74064762Y-75897047D01*
X74064762Y-75897047D02*
X74083809Y-75916095D01*
X74083809Y-75916095D02*
X74093333Y-75954190D01*
X74093333Y-75954190D02*
X74093333Y-76020857D01*
X74093333Y-76020857D02*
X74083809Y-76058952D01*
X74083809Y-76058952D02*
X74064762Y-76078000D01*
X74064762Y-76078000D02*
X74045714Y-76087523D01*
X74045714Y-76087523D02*
X74007619Y-76087523D01*
X74007619Y-76087523D02*
X73988571Y-76078000D01*
X73988571Y-76078000D02*
X73969524Y-76058952D01*
X73969524Y-76058952D02*
X73960000Y-76020857D01*
X73960000Y-76020857D02*
X73960000Y-75954190D01*
X73960000Y-75954190D02*
X73969524Y-75916095D01*
X73969524Y-75916095D02*
X73988571Y-75897047D01*
X73988571Y-75897047D02*
X74007619Y-75887523D01*
X74179048Y-76087523D02*
X74179048Y-75887523D01*
X74179048Y-75887523D02*
X74293333Y-76087523D01*
X74293333Y-76087523D02*
X74293333Y-75887523D01*
X74388572Y-75982761D02*
X74455238Y-75982761D01*
X74483810Y-76087523D02*
X74388572Y-76087523D01*
X74388572Y-76087523D02*
X74388572Y-75887523D01*
X74388572Y-75887523D02*
X74483810Y-75887523D01*
%TD*%
M02*
