%TF.GenerationSoftware,KiCad,Pcbnew,7.0.1*%
%TF.CreationDate,2023-05-13T17:15:20-04:00*%
%TF.ProjectId,PCB,5043422e-6b69-4636-9164-5f7063625858,rev?*%
%TF.SameCoordinates,Original*%
%TF.FileFunction,Profile,NP*%
%FSLAX46Y46*%
G04 Gerber Fmt 4.6, Leading zero omitted, Abs format (unit mm)*
G04 Created by KiCad (PCBNEW 7.0.1) date 2023-05-13 17:15:20*
%MOMM*%
%LPD*%
G01*
G04 APERTURE LIST*
%ADD10C,0.350000*%
G04 APERTURE END LIST*
D10*
X82653114Y-85199986D02*
X82994426Y-85087207D01*
X83198239Y-84800157D01*
X83224117Y-84630641D01*
X260508128Y8999949D02*
X260508106Y8999992D01*
X-7000867Y8999992D02*
X-7403875Y8959241D01*
X-7779234Y8842636D01*
X-8118911Y8658211D01*
X-8414872Y8414000D01*
X-8659082Y8118040D01*
X-8843509Y7778364D01*
X-8960117Y7403008D01*
X-9000874Y7000006D01*
X89924117Y-82874999D02*
X90323726Y-82899414D01*
X90710915Y-82971202D01*
X91082284Y-83087824D01*
X91434437Y-83246746D01*
X91763973Y-83445431D01*
X92067496Y-83681344D01*
X92341606Y-83951948D01*
X92582906Y-84254708D01*
X92787996Y-84587087D01*
X92953480Y-84946550D01*
X93040120Y-85199986D01*
X242169131Y8999992D02*
X242045753Y8985975D01*
X-41881Y-85199986D02*
X95309Y-84823876D01*
X274374Y-84473159D01*
X491914Y-84150371D01*
X744530Y-83858049D01*
X1028823Y-83598726D01*
X1341396Y-83374941D01*
X1678850Y-83189229D01*
X2037785Y-83044125D01*
X2414803Y-82942166D01*
X2806506Y-82885887D01*
X3074121Y-82874999D01*
X273699119Y-85199986D02*
X274102126Y-85159234D01*
X274477485Y-85042629D01*
X274817162Y-84858204D01*
X275113123Y-84613993D01*
X275357333Y-84318033D01*
X275541760Y-83978357D01*
X275658368Y-83603001D01*
X275699126Y-83200000D01*
X45995123Y-85199986D02*
X46984426Y-85199986D01*
X176774113Y-82874999D02*
X177042120Y-82874999D01*
X259521108Y-82606992D02*
X259817493Y-82805154D01*
X260167106Y-82874999D01*
X273449112Y8999992D02*
X266740112Y8999992D01*
X1999682Y6809557D02*
X1514483Y6704509D01*
X1031471Y6674416D01*
X557501Y6715564D01*
X99431Y6824235D01*
X-335884Y6996715D01*
X-741587Y7229288D01*
X-1110821Y7518236D01*
X-1436730Y7859845D01*
X-1712458Y8250398D01*
X-1931148Y8686180D01*
X-2041867Y8999992D01*
X266740112Y8999992D02*
X266599357Y8616247D01*
X266413985Y8257310D01*
X266187299Y7926485D01*
X265922598Y7627071D01*
X265623184Y7362370D01*
X265292359Y7135684D01*
X264933422Y6950312D01*
X264549677Y6809557D01*
X177028124Y6675005D02*
X176774113Y6675005D01*
X253077121Y-85199986D02*
X253418449Y-85087190D01*
X253622256Y-84800106D01*
X253648125Y-84630576D01*
X253648125Y-84630576D02*
X253648125Y-84629004D01*
X52583115Y8430668D02*
X52583115Y8429010D01*
X45211020Y-83748783D02*
X45322368Y-84103690D01*
X45408757Y-84470509D01*
X45439128Y-84643991D01*
X241598106Y8429010D02*
X241501503Y8025936D01*
X241361071Y7642438D01*
X241179606Y7281315D01*
X240959907Y6945366D01*
X240704773Y6637389D01*
X240417002Y6360183D01*
X240099393Y6116547D01*
X239754744Y5909279D01*
X239385854Y5741178D01*
X238995520Y5615044D01*
X238724768Y5555650D01*
X29226767Y5555650D02*
X28865680Y5509651D01*
X28508668Y5500469D01*
X28157807Y5526661D01*
X27647585Y5629115D01*
X27162869Y5803035D01*
X26710661Y6043548D01*
X26297961Y6345779D01*
X25931770Y6704853D01*
X25619089Y7115896D01*
X25366920Y7574033D01*
X25235882Y7903215D01*
X25136924Y8249716D01*
X25100124Y8429010D01*
X275699126Y6750000D02*
X275699126Y7000006D01*
X213545770Y8999992D02*
X213544134Y8999992D01*
X89698119Y6675005D02*
X89339857Y6589608D01*
X89134114Y6441018D01*
X220703129Y-85199986D02*
X221035660Y-85089376D01*
X221241519Y-84782888D01*
X221259124Y-84643991D01*
X183474113Y8429010D02*
X183385705Y8053940D01*
X183257940Y7692362D01*
X183092327Y7347282D01*
X182890376Y7021705D01*
X182653597Y6718636D01*
X182567192Y6623134D01*
X114938525Y8999992D02*
X93040120Y8999992D01*
X116268246Y8193387D02*
X116064391Y8490785D01*
X115800622Y8727230D01*
X115489984Y8894811D01*
X115145524Y8985618D01*
X114938525Y8999992D01*
X83224117Y-84630641D02*
X83224117Y-84629004D01*
X-2041867Y8999992D02*
X-6750882Y8999992D01*
X264549677Y6809557D02*
X264064479Y6704509D01*
X263581471Y6674418D01*
X263107507Y6715566D01*
X262649443Y6824239D01*
X262214133Y6996718D01*
X261808435Y7229289D01*
X261439203Y7518233D01*
X261113292Y7859836D01*
X260837559Y8250379D01*
X260618858Y8686148D01*
X260508128Y8999949D01*
X-7000867Y-85199986D02*
X-6751313Y-85199986D01*
X82655117Y8999949D02*
X53153472Y8999927D01*
X-6750882Y8999992D02*
X-7000867Y8999992D01*
X34965112Y-85199986D02*
X35297644Y-85089376D01*
X35503515Y-84782888D01*
X35521129Y-84643991D01*
X183474113Y8430647D02*
X183474113Y8429010D01*
X32671109Y8999992D02*
X32608322Y8993748D01*
X275699126Y-83200000D02*
X275699126Y-82949994D01*
X-9000874Y-83200000D02*
X-8960117Y-83603001D01*
X-8843509Y-83978357D01*
X-8659082Y-84318033D01*
X-8414872Y-84613993D01*
X-8118911Y-84858204D01*
X-7779234Y-85042629D01*
X-7403875Y-85159234D01*
X-7000867Y-85199986D01*
X53153472Y8999927D02*
X52812537Y8886978D01*
X52608969Y8600069D01*
X52583115Y8430668D01*
X8923678Y-81755493D02*
X9284763Y-81709509D01*
X9641771Y-81700342D01*
X9992626Y-81726549D01*
X10502836Y-81829023D01*
X10987536Y-82002963D01*
X11439726Y-82243493D01*
X11852404Y-82545738D01*
X12218572Y-82904825D01*
X12531227Y-83315877D01*
X12783371Y-83774022D01*
X12914392Y-84103206D01*
X13013334Y-84449709D01*
X13050127Y-84629004D01*
X93040120Y8999970D02*
X92902923Y8623862D01*
X92723856Y8273148D01*
X92506315Y7950364D01*
X92253699Y7658046D01*
X91969406Y7398729D01*
X91656834Y7174948D01*
X91319383Y6989239D01*
X90960450Y6844137D01*
X90583433Y6742178D01*
X90191731Y6685897D01*
X89924117Y6675005D01*
X42094113Y8999992D02*
X32671109Y8999992D01*
X116268547Y8193560D02*
X116268246Y8193387D01*
X177531130Y-82671996D02*
X177827291Y-82421048D01*
X178147412Y-82204864D01*
X178488423Y-82024993D01*
X178847255Y-81882984D01*
X179220840Y-81780386D01*
X179348116Y-81755213D01*
X4190117Y8999992D02*
X4049363Y8616247D01*
X3863994Y8257310D01*
X3637310Y7926485D01*
X3372612Y7627071D01*
X3073199Y7362370D01*
X2742373Y7135684D01*
X2383434Y6950312D01*
X1999682Y6809557D01*
X24529121Y8999992D02*
X24451025Y8999992D01*
X184043501Y-85199986D02*
X184045116Y-85199986D01*
X213544134Y8999992D02*
X184045116Y8999992D01*
X177042120Y-82874999D02*
X177382461Y-82784774D01*
X177531130Y-82671996D01*
X52583115Y8429010D02*
X52504513Y8029848D01*
X52395382Y7642896D01*
X52257030Y7269464D01*
X52090764Y6910859D01*
X51897893Y6568392D01*
X51679726Y6243369D01*
X51437572Y5937101D01*
X51172738Y5650894D01*
X50886533Y5386059D01*
X50580267Y5143902D01*
X50255246Y4925733D01*
X49912780Y4732861D01*
X49554177Y4566594D01*
X49180746Y4428240D01*
X48793794Y4319108D01*
X48394632Y4240506D01*
X84142127Y-82811394D02*
X84405423Y-82559999D01*
X84687298Y-82340657D01*
X84985222Y-82153435D01*
X85456676Y-81932981D01*
X85950031Y-81785188D01*
X86456757Y-81710288D01*
X86968327Y-81708516D01*
X87476213Y-81780104D01*
X87971887Y-81925286D01*
X88446820Y-82144293D01*
X88747709Y-82331428D01*
X89033063Y-82551548D01*
X89169125Y-82673999D01*
X25100124Y8429010D02*
X24987186Y8770055D01*
X24699939Y8973504D01*
X24652714Y8986039D01*
X242045753Y8985975D02*
X241741594Y8807425D01*
X241600389Y8481126D01*
X241598106Y8430604D01*
X231177123Y-84643991D02*
X231287732Y-84976522D01*
X231594220Y-85182381D01*
X231733119Y-85199986D01*
X260167106Y-82874999D02*
X263624109Y-82874999D01*
X219844611Y4240506D02*
X219333606Y4187330D01*
X218829551Y4185974D01*
X218335323Y4234331D01*
X217853804Y4330297D01*
X217387873Y4471766D01*
X216940411Y4656633D01*
X216514296Y4882792D01*
X216112409Y5148139D01*
X215737631Y5450567D01*
X215392840Y5787973D01*
X215080917Y6158249D01*
X214804741Y6559291D01*
X214567194Y6988993D01*
X214371153Y7445251D01*
X214219501Y7925959D01*
X214115116Y8429010D01*
X32100127Y8429010D02*
X32003524Y8025936D01*
X31863090Y7642438D01*
X31681623Y7281315D01*
X31461921Y6945366D01*
X31206784Y6637389D01*
X30919010Y6360183D01*
X30601398Y6116547D01*
X30256747Y5909279D01*
X29887854Y5741178D01*
X29497520Y5615044D01*
X29226767Y5555650D01*
X214115116Y8429010D02*
X214002346Y8770306D01*
X213715288Y8974115D01*
X213545770Y8999992D01*
X89924117Y6675005D02*
X89698119Y6675005D01*
X89134114Y6441018D02*
X88841904Y6199287D01*
X88527139Y5990951D01*
X88192693Y5817437D01*
X87841439Y5680170D01*
X87476251Y5580576D01*
X87351923Y5555995D01*
X48394632Y4240506D02*
X47883624Y4187330D01*
X47379565Y4185974D01*
X46885334Y4234331D01*
X46403813Y4330297D01*
X45937880Y4471766D01*
X45490416Y4656633D01*
X45064300Y4882792D01*
X44662412Y5148139D01*
X44287632Y5450567D01*
X43942841Y5787973D01*
X43630917Y6158249D01*
X43354742Y6559291D01*
X43117194Y6988993D01*
X42921153Y7445251D01*
X42769501Y7925959D01*
X42665116Y8429010D01*
X182567192Y6623134D02*
X182305046Y6370567D01*
X182024180Y6149965D01*
X181727119Y5961410D01*
X181256689Y5738840D01*
X180764032Y5588827D01*
X180257674Y5511641D01*
X179746143Y5507556D01*
X179237964Y5576841D01*
X178741665Y5719768D01*
X178265772Y5936610D01*
X177964056Y6122368D01*
X177677727Y6341178D01*
X177541121Y6463002D01*
X184045116Y8999992D02*
X183703803Y8887223D01*
X183499990Y8600166D01*
X183474113Y8430647D01*
X173658132Y8999992D02*
X123179452Y8999992D01*
X234028823Y8999992D02*
X234027122Y8999992D01*
X253648125Y-84629004D02*
X253732185Y-84269094D01*
X253852525Y-83921380D01*
X254007843Y-83588528D01*
X254196840Y-83273203D01*
X254418215Y-82978073D01*
X254498977Y-82884645D01*
X121854683Y8193538D02*
X121618143Y7800116D01*
X121336610Y7459049D01*
X121016509Y7170358D01*
X120664263Y6934065D01*
X120286297Y6750193D01*
X119889036Y6618762D01*
X119478904Y6539796D01*
X119062325Y6513314D01*
X118645724Y6539341D01*
X118235525Y6617896D01*
X117838153Y6749002D01*
X117460032Y6932681D01*
X117107587Y7168955D01*
X116787241Y7457845D01*
X116505419Y7799373D01*
X116268547Y8193560D01*
X234027122Y8999992D02*
X234001025Y8999992D01*
X221259124Y-84643991D02*
X221332318Y-84272707D01*
X221432581Y-83912194D01*
X221487039Y-83749407D01*
X42665116Y8429010D02*
X42552524Y8770038D01*
X42265864Y8973855D01*
X42096546Y8999906D01*
X24652714Y8986039D02*
X24530800Y8999992D01*
X32100127Y8430668D02*
X32100127Y8429010D01*
X93040120Y8999992D02*
X93040120Y8999970D01*
X45439128Y-84643991D02*
X45549737Y-84976522D01*
X45856225Y-85182381D01*
X45995123Y-85199986D01*
X221487039Y-83749407D02*
X221680487Y-83277502D01*
X221918674Y-82831276D01*
X222198851Y-82413519D01*
X222518270Y-82027025D01*
X222874181Y-81674586D01*
X223263836Y-81358995D01*
X223684486Y-81083043D01*
X224133382Y-80849523D01*
X224607776Y-80661228D01*
X225104918Y-80520950D01*
X225447628Y-80455487D01*
X234001025Y8999992D02*
X224604118Y8999992D01*
X93040120Y-85199986D02*
X173658132Y-85199986D01*
X231733119Y-85199986D02*
X253077121Y-85199986D01*
X-9000874Y7000006D02*
X-9000874Y6750000D01*
X42095792Y8999992D02*
X42094113Y8999992D01*
X224033115Y8430604D02*
X224033115Y8429010D01*
X234086786Y8994071D02*
X234028823Y8999992D01*
X123179452Y8999992D02*
X122822820Y8955672D01*
X122492535Y8830703D01*
X122201526Y8632875D01*
X121962724Y8369980D01*
X121854683Y8193538D01*
X89654129Y-82874999D02*
X89924117Y-82874999D01*
X32608322Y8993748D02*
X32283405Y8846531D01*
X32110398Y8537820D01*
X32100127Y8430668D01*
X24530800Y8999992D02*
X24529121Y8999992D01*
X177541121Y6463002D02*
X177239120Y6643953D01*
X177028124Y6675005D01*
X176774113Y6675005D02*
X176374509Y6699426D01*
X175987325Y6771216D01*
X175615959Y6887840D01*
X175263809Y7046762D01*
X174934275Y7245447D01*
X174630753Y7481358D01*
X174356644Y7751960D01*
X174115345Y8054718D01*
X173910255Y8387095D01*
X173744771Y8746557D01*
X173658132Y8999992D01*
X42096546Y8999906D02*
X42095792Y8999992D01*
X35521129Y-84643991D02*
X35599730Y-84244827D01*
X35708861Y-83857875D01*
X35847214Y-83484443D01*
X36013480Y-83125839D01*
X36206350Y-82783371D01*
X36424518Y-82458349D01*
X36666673Y-82152080D01*
X36931507Y-81865874D01*
X37217713Y-81601038D01*
X37523981Y-81358881D01*
X37849003Y-81140713D01*
X38191472Y-80947841D01*
X38550077Y-80781573D01*
X38923511Y-80643220D01*
X39310466Y-80534088D01*
X39709633Y-80455487D01*
X254498977Y-82884645D02*
X254755205Y-82625956D01*
X255030901Y-82398794D01*
X255323540Y-82203298D01*
X255788746Y-81969735D01*
X256277876Y-81808205D01*
X256782408Y-81719182D01*
X257293824Y-81703134D01*
X257803603Y-81760534D01*
X258303226Y-81891852D01*
X258784173Y-82097559D01*
X259090221Y-82276256D01*
X259381657Y-82488365D01*
X259521108Y-82606992D01*
X173658132Y-85199986D02*
X173795322Y-84823876D01*
X173974385Y-84473159D01*
X174191923Y-84150371D01*
X174444536Y-83858049D01*
X174728827Y-83598726D01*
X175041397Y-83374941D01*
X175378847Y-83189229D01*
X175737780Y-83044125D01*
X176114796Y-82942166D01*
X176506498Y-82885887D01*
X176774113Y-82874999D01*
X39709633Y-80455487D02*
X40162902Y-80405720D01*
X40610898Y-80396902D01*
X41051624Y-80427561D01*
X41483082Y-80496225D01*
X41903277Y-80601423D01*
X42310213Y-80741681D01*
X42701891Y-80915529D01*
X43076317Y-81121493D01*
X43431493Y-81358103D01*
X43765422Y-81623886D01*
X44076109Y-81917369D01*
X44361556Y-82237082D01*
X44619767Y-82581552D01*
X44848746Y-82949306D01*
X45046496Y-83338874D01*
X45211020Y-83748783D01*
X266740112Y-85199986D02*
X273449543Y-85199986D01*
X13619472Y-85199986D02*
X13621130Y-85199986D01*
X-9000874Y6750000D02*
X-9000874Y-82949994D01*
X273449543Y-85199986D02*
X273699119Y-85199986D01*
X234598103Y8429010D02*
X234483080Y8771710D01*
X234191230Y8973312D01*
X234086786Y8994071D01*
X83224117Y-84629004D02*
X83313396Y-84251002D01*
X83442637Y-83886756D01*
X83610288Y-83539337D01*
X83814796Y-83211819D01*
X84054611Y-82907273D01*
X84142127Y-82811394D01*
X-9000874Y-82949994D02*
X-9000874Y-83200000D01*
X83224117Y8429010D02*
X83111428Y8770194D01*
X82824547Y8974002D01*
X82655117Y8999949D01*
X89169125Y-82673999D02*
X89486913Y-82854325D01*
X89654129Y-82874999D01*
X273699119Y8999992D02*
X273449112Y8999992D01*
X24451025Y8999992D02*
X4190117Y8999992D01*
X6649118Y-82874999D02*
X6989622Y-82771619D01*
X7083136Y-82694992D01*
X225447628Y-80455487D02*
X225958632Y-80402310D01*
X226462688Y-80400953D01*
X226956917Y-80449310D01*
X227438437Y-80545276D01*
X227904369Y-80686745D01*
X228351833Y-80871612D01*
X228777949Y-81097771D01*
X229179837Y-81363118D01*
X229554616Y-81665547D01*
X229899408Y-82002952D01*
X230211331Y-82373228D01*
X230487506Y-82774270D01*
X230725052Y-83203973D01*
X230921091Y-83660231D01*
X231072741Y-84140938D01*
X231177123Y-84643991D01*
X7083136Y-82694992D02*
X7381861Y-82437532D01*
X7705558Y-82215775D01*
X8051016Y-82031361D01*
X8415025Y-81885929D01*
X8794374Y-81781119D01*
X8923678Y-81755493D01*
X260508106Y8999992D02*
X242169131Y8999992D01*
X-6751313Y-85199986D02*
X-6750903Y-85199986D01*
X184045116Y-85199986D02*
X219718779Y-85199986D01*
X275699126Y-82949994D02*
X275699126Y6750000D01*
X224033115Y8429010D02*
X223954513Y8029844D01*
X223845381Y7642890D01*
X223707028Y7269455D01*
X223540760Y6910850D01*
X223347888Y6568382D01*
X223129720Y6243360D01*
X222887563Y5937092D01*
X222622728Y5650886D01*
X222336521Y5386051D01*
X222030252Y5143896D01*
X221705230Y4925729D01*
X221362762Y4732858D01*
X221004158Y4566592D01*
X220630726Y4428239D01*
X220243774Y4319108D01*
X219844611Y4240506D01*
X3074121Y-82874999D02*
X6649118Y-82874999D01*
X13050127Y-84629004D02*
X13162905Y-84970299D01*
X13449955Y-85174108D01*
X13619472Y-85199986D01*
X275699126Y7000006D02*
X275658368Y7403008D01*
X275541760Y7778364D01*
X275357333Y8118040D01*
X275113123Y8414000D01*
X274817162Y8658211D01*
X274477485Y8842636D01*
X274102126Y8959241D01*
X273699119Y8999992D01*
X179348116Y-81755213D02*
X179709191Y-81709268D01*
X180066185Y-81700138D01*
X180417023Y-81726378D01*
X180927202Y-81828899D01*
X181411864Y-82002878D01*
X181864010Y-82243441D01*
X182276641Y-82545712D01*
X182642757Y-82904818D01*
X182955360Y-83315882D01*
X183207449Y-83774031D01*
X183338433Y-84103214D01*
X183437338Y-84449712D01*
X183474113Y-84629004D01*
X46984426Y-85199986D02*
X82653114Y-85199986D01*
X219718779Y-85199986D02*
X220703129Y-85199986D01*
X183474113Y-84629004D02*
X183586907Y-84970315D01*
X183873980Y-85174117D01*
X184043501Y-85199986D01*
X-6750903Y-85199986D02*
X-41881Y-85199986D01*
X13621130Y-85199986D02*
X34965112Y-85199986D01*
X263624109Y-82874999D02*
X264023718Y-82899414D01*
X264410906Y-82971202D01*
X264782276Y-83087824D01*
X265134428Y-83246746D01*
X265463965Y-83445431D01*
X265767487Y-83681344D01*
X266041598Y-83951948D01*
X266282897Y-84254708D01*
X266487988Y-84587087D01*
X266653471Y-84946550D01*
X266740112Y-85199986D01*
X87351923Y5555995D02*
X86990788Y5509922D01*
X86633724Y5500672D01*
X86282805Y5526801D01*
X85772487Y5629174D01*
X85287667Y5803029D01*
X84835347Y6043492D01*
X84422529Y6345689D01*
X84056217Y6704747D01*
X83743413Y7115793D01*
X83491119Y7573952D01*
X83359998Y7903159D01*
X83260958Y8249695D01*
X83224117Y8429010D01*
X224604118Y8999992D02*
X224262805Y8887205D01*
X224058992Y8600133D01*
X224033115Y8430604D01*
X241598106Y8430604D02*
X241598106Y8429010D01*
X238724768Y5555650D02*
X238363677Y5509651D01*
X238006663Y5500469D01*
X237655800Y5526661D01*
X237145576Y5629115D01*
X236660860Y5803035D01*
X236208651Y6043548D01*
X235795951Y6345779D01*
X235429759Y6704853D01*
X235117078Y7115896D01*
X234864907Y7574033D01*
X234733866Y7903215D01*
X234634905Y8249716D01*
X234598103Y8429010D01*
M02*
