%TF.GenerationSoftware,KiCad,Pcbnew,7.0.1*%
%TF.CreationDate,2023-05-13T17:15:19-04:00*%
%TF.ProjectId,PCB,5043422e-6b69-4636-9164-5f7063625858,rev?*%
%TF.SameCoordinates,Original*%
%TF.FileFunction,Soldermask,Top*%
%TF.FilePolarity,Negative*%
%FSLAX46Y46*%
G04 Gerber Fmt 4.6, Leading zero omitted, Abs format (unit mm)*
G04 Created by KiCad (PCBNEW 7.0.1) date 2023-05-13 17:15:19*
%MOMM*%
%LPD*%
G01*
G04 APERTURE LIST*
%ADD10C,3.987800*%
%ADD11C,1.750000*%
%ADD12C,3.300000*%
%ADD13C,0.700000*%
%ADD14O,0.900000X1.700000*%
%ADD15O,0.900000X2.400000*%
G04 APERTURE END LIST*
D10*
%TO.C,S2*%
X0Y-65405000D03*
X23812500Y-65405000D03*
%TD*%
%TO.C,S1*%
X171450000Y-67945000D03*
X71437500Y-67945000D03*
%TD*%
%TO.C,S7*%
X256063750Y-16668750D03*
X256063750Y-40481250D03*
%TD*%
%TO.C,S3*%
X238125000Y-65405000D03*
X261937500Y-65405000D03*
%TD*%
%TO.C,S4*%
X242887500Y-46355000D03*
X266700000Y-46355000D03*
%TD*%
%TO.C,S5*%
X245268750Y-8255000D03*
X269081250Y-8255000D03*
%TD*%
%TO.C,S6*%
X190500000Y-67945000D03*
X76200000Y-67945000D03*
%TD*%
D11*
%TO.C,SW36*%
X152717500Y-38100000D03*
D10*
X147637500Y-38100000D03*
D11*
X142557500Y-38100000D03*
D12*
X143827500Y-35560000D03*
X150177500Y-33020000D03*
%TD*%
D11*
%TO.C,SW65*%
X128270000Y-76200000D03*
D10*
X133350000Y-76200000D03*
D11*
X138430000Y-76200000D03*
D12*
X137160000Y-78740000D03*
X130810000Y-81280000D03*
%TD*%
D11*
%TO.C,SW8*%
X128270000Y0D03*
D10*
X133350000Y0D03*
D11*
X138430000Y0D03*
D12*
X137160000Y-2540000D03*
X130810000Y-5080000D03*
%TD*%
D11*
%TO.C,SW74*%
X235426250Y-57150000D03*
D10*
X240506250Y-57150000D03*
D11*
X245586250Y-57150000D03*
D12*
X244316250Y-59690000D03*
X237966250Y-62230000D03*
%TD*%
D11*
%TO.C,SW46*%
X105092500Y-57150000D03*
D10*
X100012500Y-57150000D03*
D11*
X94932500Y-57150000D03*
D12*
X96202500Y-54610000D03*
X102552500Y-52070000D03*
%TD*%
D11*
%TO.C,SW42*%
X16986250Y-57150000D03*
D10*
X11906250Y-57150000D03*
D11*
X6826250Y-57150000D03*
D12*
X8096250Y-54610000D03*
X14446250Y-52070000D03*
%TD*%
D11*
%TO.C,SW6*%
X90170000Y0D03*
D10*
X95250000Y0D03*
D11*
X100330000Y0D03*
D12*
X99060000Y-2540000D03*
X92710000Y-5080000D03*
%TD*%
D13*
%TO.C,J1*%
X6103125Y1496875D03*
X6953125Y1496875D03*
X7803125Y1496875D03*
X8653125Y1496875D03*
X9503125Y1496875D03*
X10353125Y1496875D03*
X11203125Y1496875D03*
X12053125Y1496875D03*
X12053125Y2846875D03*
X11203125Y2846875D03*
X10353125Y2846875D03*
X9503125Y2846875D03*
X8653125Y2846875D03*
X7803125Y2846875D03*
X6953125Y2846875D03*
X6103125Y2846875D03*
D14*
X4753125Y5856875D03*
D15*
X4753125Y2476875D03*
D14*
X13403125Y5856875D03*
D15*
X13403125Y2476875D03*
%TD*%
D11*
%TO.C,SW51*%
X200342500Y-57150000D03*
D10*
X195262500Y-57150000D03*
D11*
X190182500Y-57150000D03*
D12*
X191452500Y-54610000D03*
X197802500Y-52070000D03*
%TD*%
D11*
%TO.C,SW57*%
X126523750Y-76200000D03*
D10*
X121443750Y-76200000D03*
D11*
X116363750Y-76200000D03*
D12*
X117633750Y-73660000D03*
X123983750Y-71120000D03*
%TD*%
D11*
%TO.C,SW62*%
X9842500Y-76200000D03*
D10*
X4762500Y-76200000D03*
D11*
X-317500Y-76200000D03*
D12*
X952500Y-73660000D03*
X7302500Y-71120000D03*
%TD*%
D11*
%TO.C,SW1*%
X-5080000Y0D03*
D10*
X0Y0D03*
D11*
X5080000Y0D03*
D12*
X3810000Y-2540000D03*
X-2540000Y-5080000D03*
%TD*%
D11*
%TO.C,SW38*%
X190817500Y-38100000D03*
D10*
X185737500Y-38100000D03*
D11*
X180657500Y-38100000D03*
D12*
X181927500Y-35560000D03*
X188277500Y-33020000D03*
%TD*%
D11*
%TO.C,SW3*%
X33020000Y0D03*
D10*
X38100000Y0D03*
D11*
X43180000Y0D03*
D12*
X41910000Y-2540000D03*
X35560000Y-5080000D03*
%TD*%
D11*
%TO.C,SW30*%
X38417500Y-38100000D03*
D10*
X33337500Y-38100000D03*
D11*
X28257500Y-38100000D03*
D12*
X29527500Y-35560000D03*
X35877500Y-33020000D03*
%TD*%
D11*
%TO.C,SW20*%
X109855000Y-19050000D03*
D10*
X104775000Y-19050000D03*
D11*
X99695000Y-19050000D03*
D12*
X100965000Y-16510000D03*
X107315000Y-13970000D03*
%TD*%
D11*
%TO.C,SW37*%
X171767500Y-38100000D03*
D10*
X166687500Y-38100000D03*
D11*
X161607500Y-38100000D03*
D12*
X162877500Y-35560000D03*
X169227500Y-33020000D03*
%TD*%
D11*
%TO.C,SW79*%
X18732500Y-57150000D03*
D10*
X23812500Y-57150000D03*
D11*
X28892500Y-57150000D03*
D12*
X27622500Y-59690000D03*
X21272500Y-62230000D03*
%TD*%
D11*
%TO.C,SW27*%
X243205000Y-19050000D03*
D10*
X238125000Y-19050000D03*
D11*
X233045000Y-19050000D03*
D12*
X234315000Y-16510000D03*
X240665000Y-13970000D03*
%TD*%
D11*
%TO.C,SW35*%
X133667500Y-38100000D03*
D10*
X128587500Y-38100000D03*
D11*
X123507500Y-38100000D03*
D12*
X124777500Y-35560000D03*
X131127500Y-33020000D03*
%TD*%
D11*
%TO.C,SW69*%
X7461250Y-38100000D03*
D10*
X2381250Y-38100000D03*
D11*
X-2698750Y-38100000D03*
D12*
X-1428750Y-35560000D03*
X4921250Y-33020000D03*
%TD*%
D11*
%TO.C,SW28*%
X261937500Y-24130000D03*
D10*
X261937500Y-19050000D03*
D11*
X261937500Y-13970000D03*
D12*
X264477500Y-15240000D03*
X267017500Y-21590000D03*
%TD*%
D11*
%TO.C,SW75*%
X255111250Y-57150000D03*
D10*
X250031250Y-57150000D03*
D11*
X244951250Y-57150000D03*
D12*
X246221250Y-54610000D03*
X252571250Y-52070000D03*
%TD*%
D11*
%TO.C,SW14*%
X262255000Y0D03*
D10*
X257175000Y0D03*
D11*
X252095000Y0D03*
D12*
X253365000Y2540000D03*
X259715000Y5080000D03*
%TD*%
D11*
%TO.C,SW63*%
X23495000Y-76200000D03*
D10*
X28575000Y-76200000D03*
D11*
X33655000Y-76200000D03*
D12*
X32385000Y-78740000D03*
X26035000Y-81280000D03*
%TD*%
D11*
%TO.C,SW70*%
X242570000Y0D03*
D10*
X247650000Y0D03*
D11*
X252730000Y0D03*
D12*
X251460000Y-2540000D03*
X245110000Y-5080000D03*
%TD*%
D11*
%TO.C,SW2*%
X13970000Y0D03*
D10*
X19050000Y0D03*
D11*
X24130000Y0D03*
D12*
X22860000Y-2540000D03*
X16510000Y-5080000D03*
%TD*%
D11*
%TO.C,SW54*%
X-2698750Y-76200000D03*
D10*
X2381250Y-76200000D03*
D11*
X7461250Y-76200000D03*
D12*
X6191250Y-78740000D03*
X-158750Y-81280000D03*
%TD*%
D11*
%TO.C,SW29*%
X2063750Y-38100000D03*
D10*
X7143750Y-38100000D03*
D11*
X12223750Y-38100000D03*
D12*
X10953750Y-40640000D03*
X4603750Y-43180000D03*
%TD*%
D11*
%TO.C,SW31*%
X57467500Y-38100000D03*
D10*
X52387500Y-38100000D03*
D11*
X47307500Y-38100000D03*
D12*
X48577500Y-35560000D03*
X54927500Y-33020000D03*
%TD*%
D11*
%TO.C,SW9*%
X147320000Y0D03*
D10*
X152400000Y0D03*
D11*
X157480000Y0D03*
D12*
X156210000Y-2540000D03*
X149860000Y-5080000D03*
%TD*%
D11*
%TO.C,SW19*%
X90805000Y-19050000D03*
D10*
X85725000Y-19050000D03*
D11*
X80645000Y-19050000D03*
D12*
X81915000Y-16510000D03*
X88265000Y-13970000D03*
%TD*%
D11*
%TO.C,SW40*%
X228917500Y-38100000D03*
D10*
X223837500Y-38100000D03*
D11*
X218757500Y-38100000D03*
D12*
X220027500Y-35560000D03*
X226377500Y-33020000D03*
%TD*%
D11*
%TO.C,SW7*%
X109220000Y0D03*
D10*
X114300000Y0D03*
D11*
X119380000Y0D03*
D12*
X118110000Y-2540000D03*
X111760000Y-5080000D03*
%TD*%
D11*
%TO.C,SW58*%
X197961250Y-76200000D03*
D10*
X192881250Y-76200000D03*
D11*
X187801250Y-76200000D03*
D12*
X189071250Y-73660000D03*
X195421250Y-71120000D03*
%TD*%
D11*
%TO.C,SW71*%
X261620000Y0D03*
D10*
X266700000Y0D03*
D11*
X271780000Y0D03*
D12*
X270510000Y-2540000D03*
X264160000Y-5080000D03*
%TD*%
D11*
%TO.C,SW23*%
X167005000Y-19050000D03*
D10*
X161925000Y-19050000D03*
D11*
X156845000Y-19050000D03*
D12*
X158115000Y-16510000D03*
X164465000Y-13970000D03*
%TD*%
D11*
%TO.C,SW78*%
X-2698750Y-57150000D03*
D10*
X2381250Y-57150000D03*
D11*
X7461250Y-57150000D03*
D12*
X6191250Y-59690000D03*
X-158750Y-62230000D03*
%TD*%
D11*
%TO.C,SW16*%
X33655000Y-19050000D03*
D10*
X28575000Y-19050000D03*
D11*
X23495000Y-19050000D03*
D12*
X24765000Y-16510000D03*
X31115000Y-13970000D03*
%TD*%
D11*
%TO.C,SW52*%
X219392500Y-57150000D03*
D10*
X214312500Y-57150000D03*
D11*
X209232500Y-57150000D03*
D12*
X210502500Y-54610000D03*
X216852500Y-52070000D03*
%TD*%
D11*
%TO.C,SW55*%
X31273750Y-76200000D03*
D10*
X26193750Y-76200000D03*
D11*
X21113750Y-76200000D03*
D12*
X22383750Y-73660000D03*
X28733750Y-71120000D03*
%TD*%
D11*
%TO.C,SW43*%
X47942500Y-57150000D03*
D10*
X42862500Y-57150000D03*
D11*
X37782500Y-57150000D03*
D12*
X39052500Y-54610000D03*
X45402500Y-52070000D03*
%TD*%
D11*
%TO.C,SW25*%
X205105000Y-19050000D03*
D10*
X200025000Y-19050000D03*
D11*
X194945000Y-19050000D03*
D12*
X196215000Y-16510000D03*
X202565000Y-13970000D03*
%TD*%
D11*
%TO.C,SW53*%
X261620000Y-57150000D03*
D10*
X266700000Y-57150000D03*
D11*
X271780000Y-57150000D03*
D12*
X270510000Y-59690000D03*
X264160000Y-62230000D03*
%TD*%
D11*
%TO.C,SW45*%
X86042500Y-57150000D03*
D10*
X80962500Y-57150000D03*
D11*
X75882500Y-57150000D03*
D12*
X77152500Y-54610000D03*
X83502500Y-52070000D03*
%TD*%
D11*
%TO.C,SW11*%
X185420000Y0D03*
D10*
X190500000Y0D03*
D11*
X195580000Y0D03*
D12*
X194310000Y-2540000D03*
X187960000Y-5080000D03*
%TD*%
D11*
%TO.C,SW34*%
X114617500Y-38100000D03*
D10*
X109537500Y-38100000D03*
D11*
X104457500Y-38100000D03*
D12*
X105727500Y-35560000D03*
X112077500Y-33020000D03*
%TD*%
D11*
%TO.C,SW10*%
X166370000Y0D03*
D10*
X171450000Y0D03*
D11*
X176530000Y0D03*
D12*
X175260000Y-2540000D03*
X168910000Y-5080000D03*
%TD*%
D11*
%TO.C,SW49*%
X162242500Y-57150000D03*
D10*
X157162500Y-57150000D03*
D11*
X152082500Y-57150000D03*
D12*
X153352500Y-54610000D03*
X159702500Y-52070000D03*
%TD*%
D11*
%TO.C,SW48*%
X143192500Y-57150000D03*
D10*
X138112500Y-57150000D03*
D11*
X133032500Y-57150000D03*
D12*
X134302500Y-54610000D03*
X140652500Y-52070000D03*
%TD*%
D11*
%TO.C,SW32*%
X76517500Y-38100000D03*
D10*
X71437500Y-38100000D03*
D11*
X66357500Y-38100000D03*
D12*
X67627500Y-35560000D03*
X73977500Y-33020000D03*
%TD*%
D11*
%TO.C,SW18*%
X71755000Y-19050000D03*
D10*
X66675000Y-19050000D03*
D11*
X61595000Y-19050000D03*
D12*
X62865000Y-16510000D03*
X69215000Y-13970000D03*
%TD*%
D11*
%TO.C,SW50*%
X181292500Y-57150000D03*
D10*
X176212500Y-57150000D03*
D11*
X171132500Y-57150000D03*
D12*
X172402500Y-54610000D03*
X178752500Y-52070000D03*
%TD*%
D11*
%TO.C,SW61*%
X211613750Y-76200000D03*
D10*
X216693750Y-76200000D03*
D11*
X221773750Y-76200000D03*
D12*
X220503750Y-78740000D03*
X214153750Y-81280000D03*
%TD*%
D11*
%TO.C,SW47*%
X124142500Y-57150000D03*
D10*
X119062500Y-57150000D03*
D11*
X113982500Y-57150000D03*
D12*
X115252500Y-54610000D03*
X121602500Y-52070000D03*
%TD*%
D11*
%TO.C,SW12*%
X204470000Y0D03*
D10*
X209550000Y0D03*
D11*
X214630000Y0D03*
D12*
X213360000Y-2540000D03*
X207010000Y-5080000D03*
%TD*%
D11*
%TO.C,SW64*%
X47307500Y-76200000D03*
D10*
X52387500Y-76200000D03*
D11*
X57467500Y-76200000D03*
D12*
X56197500Y-78740000D03*
X49847500Y-81280000D03*
%TD*%
D11*
%TO.C,SW59*%
X235426250Y-76200000D03*
D10*
X240506250Y-76200000D03*
D11*
X245586250Y-76200000D03*
D12*
X244316250Y-78740000D03*
X237966250Y-81280000D03*
%TD*%
D11*
%TO.C,SW24*%
X186055000Y-19050000D03*
D10*
X180975000Y-19050000D03*
D11*
X175895000Y-19050000D03*
D12*
X177165000Y-16510000D03*
X183515000Y-13970000D03*
%TD*%
D11*
%TO.C,SW76*%
X264318750Y-23495000D03*
D10*
X264318750Y-28575000D03*
D11*
X264318750Y-33655000D03*
D12*
X261778750Y-32385000D03*
X259238750Y-26035000D03*
%TD*%
D11*
%TO.C,SW67*%
X243205000Y-76200000D03*
D10*
X238125000Y-76200000D03*
D11*
X233045000Y-76200000D03*
D12*
X234315000Y-73660000D03*
X240665000Y-71120000D03*
%TD*%
D11*
%TO.C,SW41*%
X254793750Y-33020000D03*
D10*
X254793750Y-38100000D03*
D11*
X254793750Y-43180000D03*
D12*
X252253750Y-41910000D03*
X249713750Y-35560000D03*
%TD*%
D11*
%TO.C,SW33*%
X95567500Y-38100000D03*
D10*
X90487500Y-38100000D03*
D11*
X85407500Y-38100000D03*
D12*
X86677500Y-35560000D03*
X93027500Y-33020000D03*
%TD*%
D11*
%TO.C,SW17*%
X52705000Y-19050000D03*
D10*
X47625000Y-19050000D03*
D11*
X42545000Y-19050000D03*
D12*
X43815000Y-16510000D03*
X50165000Y-13970000D03*
%TD*%
D11*
%TO.C,SW4*%
X52070000Y0D03*
D10*
X57150000Y0D03*
D11*
X62230000Y0D03*
D12*
X60960000Y-2540000D03*
X54610000Y-5080000D03*
%TD*%
D11*
%TO.C,SW15*%
X9842500Y-19050000D03*
D10*
X4762500Y-19050000D03*
D11*
X-317500Y-19050000D03*
D12*
X952500Y-16510000D03*
X7302500Y-13970000D03*
%TD*%
D11*
%TO.C,SW39*%
X209867500Y-38100000D03*
D10*
X204787500Y-38100000D03*
D11*
X199707500Y-38100000D03*
D12*
X200977500Y-35560000D03*
X207327500Y-33020000D03*
%TD*%
D11*
%TO.C,SW44*%
X66992500Y-57150000D03*
D10*
X61912500Y-57150000D03*
D11*
X56832500Y-57150000D03*
D12*
X58102500Y-54610000D03*
X64452500Y-52070000D03*
%TD*%
D11*
%TO.C,SW77*%
X242887500Y-33020000D03*
D10*
X242887500Y-38100000D03*
D11*
X242887500Y-43180000D03*
D12*
X240347500Y-41910000D03*
X237807500Y-35560000D03*
%TD*%
D11*
%TO.C,SW21*%
X128905000Y-19050000D03*
D10*
X123825000Y-19050000D03*
D11*
X118745000Y-19050000D03*
D12*
X120015000Y-16510000D03*
X126365000Y-13970000D03*
%TD*%
D11*
%TO.C,SW13*%
X223520000Y0D03*
D10*
X228600000Y0D03*
D11*
X233680000Y0D03*
D12*
X232410000Y-2540000D03*
X226060000Y-5080000D03*
%TD*%
D11*
%TO.C,SW66*%
X219392500Y-76200000D03*
D10*
X214312500Y-76200000D03*
D11*
X209232500Y-76200000D03*
D12*
X210502500Y-73660000D03*
X216852500Y-71120000D03*
%TD*%
D11*
%TO.C,SW60*%
X259238750Y-76200000D03*
D10*
X264318750Y-76200000D03*
D11*
X269398750Y-76200000D03*
D12*
X268128750Y-78740000D03*
X261778750Y-81280000D03*
%TD*%
D11*
%TO.C,SW5*%
X71120000Y0D03*
D10*
X76200000Y0D03*
D11*
X81280000Y0D03*
D12*
X80010000Y-2540000D03*
X73660000Y-5080000D03*
%TD*%
D11*
%TO.C,SW22*%
X147955000Y-19050000D03*
D10*
X142875000Y-19050000D03*
D11*
X137795000Y-19050000D03*
D12*
X139065000Y-16510000D03*
X145415000Y-13970000D03*
%TD*%
D11*
%TO.C,SW68*%
X267017500Y-76200000D03*
D10*
X261937500Y-76200000D03*
D11*
X256857500Y-76200000D03*
D12*
X258127500Y-73660000D03*
X264477500Y-71120000D03*
%TD*%
D11*
%TO.C,SW26*%
X224155000Y-19050000D03*
D10*
X219075000Y-19050000D03*
D11*
X213995000Y-19050000D03*
D12*
X215265000Y-16510000D03*
X221615000Y-13970000D03*
%TD*%
D11*
%TO.C,SW56*%
X55086250Y-76200000D03*
D10*
X50006250Y-76200000D03*
D11*
X44926250Y-76200000D03*
D12*
X46196250Y-73660000D03*
X52546250Y-71120000D03*
%TD*%
M02*
